<?xml version="1.0" standalone="no"?>
<!DOCTYPE svg PUBLIC "-//W3C//DTD SVG 20010904//EN"
 "http://www.w3.org/TR/2001/REC-SVG-20010904/DTD/svg10.dtd">
<svg version="1.0" xmlns="http://www.w3.org/2000/svg"
 width="4057.000000pt" height="4057.000000pt" viewBox="0 0 4057.000000 4057.000000"
 preserveAspectRatio="xMidYMid meet">
<metadata>
Created by potrace 1.11, written by Peter Selinger 2001-2013
</metadata>
<g transform="translate(0.000000,4057.000000) scale(0.100000,-0.100000)"
fill="#000000" stroke="none">
<path d="M10319 37666 c-2 -2 -83 -7 -179 -10 -96 -3 -211 -8 -255 -10 -174
-11 -338 -23 -425 -31 -25 -3 -79 -7 -120 -10 -41 -4 -86 -8 -100 -10 -14 -2
-59 -7 -100 -10 -41 -4 -83 -9 -92 -10 -9 -2 -49 -7 -90 -10 -40 -4 -75 -8
-78 -10 -3 -2 -34 -6 -69 -10 -34 -4 -72 -8 -84 -11 -12 -2 -42 -6 -67 -9 -25
-3 -56 -7 -70 -10 -14 -2 -45 -7 -70 -10 -40 -5 -181 -28 -250 -40 -14 -3 -52
-10 -85 -15 -87 -15 -103 -17 -295 -57 -96 -19 -184 -37 -195 -39 -23 -4 -13
-2 -205 -48 -214 -51 -349 -85 -400 -100 -25 -8 -72 -21 -105 -31 -487 -138
-1010 -324 -1400 -500 -33 -15 -105 -47 -160 -72 -111 -50 -491 -238 -509
-251 -6 -5 -56 -33 -111 -62 -55 -29 -129 -70 -164 -91 -34 -22 -65 -39 -67
-39 -7 0 -348 -213 -354 -220 -3 -4 -10 -9 -15 -11 -11 -4 -195 -128 -301
-202 -59 -42 -376 -282 -418 -317 -135 -113 -294 -248 -307 -260 -8 -8 -62
-58 -119 -110 -217 -198 -554 -547 -696 -720 -16 -19 -34 -41 -41 -48 -7 -7
-29 -34 -50 -60 -21 -26 -44 -53 -51 -60 -7 -8 -25 -30 -40 -50 -15 -21 -32
-43 -39 -50 -35 -37 -285 -379 -385 -527 -293 -433 -521 -842 -773 -1390 -173
-374 -383 -957 -509 -1410 -37 -132 -71 -256 -77 -275 -6 -19 -11 -42 -13 -50
-1 -8 -5 -24 -9 -35 -3 -11 -8 -31 -11 -45 -2 -14 -11 -52 -19 -85 -18 -71
-96 -431 -102 -472 -2 -15 -7 -39 -10 -53 -3 -14 -8 -40 -11 -59 -3 -18 -8
-43 -10 -55 -2 -11 -9 -48 -14 -81 -5 -33 -12 -71 -15 -85 -3 -14 -7 -38 -10
-55 -5 -37 -15 -102 -20 -135 -3 -14 -9 -61 -15 -105 -6 -44 -13 -91 -15 -105
-9 -64 -15 -109 -20 -160 -4 -30 -8 -66 -10 -80 -2 -14 -7 -54 -10 -90 -3 -35
-8 -78 -10 -95 -10 -78 -28 -278 -41 -475 -3 -52 -7 -117 -9 -145 -27 -359
-27 -1367 -1 -1590 2 -16 7 -70 10 -120 8 -97 22 -229 41 -375 3 -19 7 -55 10
-80 11 -81 16 -113 36 -235 11 -66 22 -136 25 -155 3 -19 7 -43 10 -53 3 -10
7 -32 10 -50 2 -18 8 -54 14 -82 6 -27 12 -59 14 -70 6 -28 46 -217 51 -235
29 -122 47 -198 50 -210 18 -84 108 -410 152 -555 40 -131 143 -448 152 -470
5 -11 19 -49 32 -85 96 -276 297 -775 416 -1030 19 -41 42 -91 50 -110 9 -19
84 -174 169 -345 161 -326 223 -445 363 -696 34 -59 163 -286 176 -307 6 -9
24 -39 40 -67 49 -84 235 -385 282 -460 25 -38 62 -95 81 -125 78 -122 250
-376 405 -600 94 -136 319 -441 471 -640 133 -174 381 -487 395 -500 3 -3 35
-41 71 -85 74 -91 417 -495 434 -510 6 -5 26 -28 45 -50 19 -22 71 -80 115
-129 45 -49 94 -103 110 -120 199 -218 682 -710 831 -845 33 -30 156 -147 274
-260 117 -113 239 -230 270 -260 31 -30 155 -150 276 -266 121 -117 254 -246
296 -287 42 -40 168 -161 280 -270 112 -108 242 -233 289 -278 47 -45 177
-171 290 -280 113 -109 239 -230 280 -270 41 -40 174 -168 295 -285 121 -117
245 -237 276 -266 31 -30 157 -151 280 -271 123 -119 247 -238 275 -265 45
-41 383 -368 553 -533 31 -30 160 -154 285 -275 126 -121 274 -264 329 -318
56 -53 181 -174 279 -269 98 -94 211 -203 252 -242 158 -153 514 -497 577
-557 37 -35 160 -155 275 -266 115 -110 241 -232 279 -269 124 -119 515 -496
619 -597 56 -54 179 -173 275 -265 95 -92 210 -202 255 -246 44 -43 164 -159
266 -257 102 -98 226 -217 276 -266 50 -48 189 -182 309 -298 120 -115 246
-237 280 -270 34 -33 162 -157 285 -275 122 -118 255 -246 295 -285 40 -38
171 -164 290 -280 120 -115 244 -235 275 -265 105 -101 474 -457 552 -532 65
-63 279 -268 582 -561 81 -79 406 -392 546 -527 77 -74 473 -457 585 -565 34
-33 125 -121 202 -195 77 -74 239 -230 359 -347 120 -116 253 -243 294 -283
41 -40 167 -161 280 -270 113 -109 239 -231 280 -270 41 -40 174 -167 294
-283 121 -117 277 -268 349 -337 71 -69 164 -159 207 -200 120 -116 140 -133
231 -195 106 -73 232 -135 352 -173 103 -34 122 -38 262 -62 54 -10 361 -6
410 4 17 4 55 11 85 17 154 31 323 102 467 196 110 72 136 95 377 327 115 110
234 226 266 256 32 30 158 152 280 270 318 306 317 305 536 516 110 106 228
220 264 254 62 60 443 426 561 540 162 157 478 462 529 510 32 30 149 143 260
250 111 107 230 222 264 255 35 33 161 155 282 271 120 117 251 242 289 279
39 36 162 155 274 263 112 108 225 217 251 242 25 25 147 142 271 262 123 119
242 233 264 253 22 21 144 138 270 260 127 123 257 249 290 280 71 68 453 436
535 515 31 30 153 147 270 260 117 113 243 234 280 270 75 72 413 398 530 510
41 40 164 158 274 264 109 105 231 223 271 261 63 60 254 244 531 511 125 121
476 459 554 534 41 40 170 163 285 275 116 111 237 228 270 260 33 31 154 147
269 258 270 260 436 420 512 493 34 33 159 154 279 269 120 116 246 237 280
270 35 33 154 148 265 255 111 107 237 229 280 270 43 41 167 161 277 266 109
105 227 220 263 254 81 77 437 420 535 515 40 39 164 158 275 265 112 107 231
222 265 255 123 118 490 472 576 555 48 47 167 162 264 255 98 94 205 197 240
230 34 33 158 152 276 265 387 372 751 739 1009 1020 52 57 100 108 105 114
24 26 185 208 240 271 33 38 65 73 70 79 17 18 187 219 230 271 22 27 65 78
96 114 72 86 316 391 404 506 38 50 71 92 75 95 12 11 416 560 467 637 7 10
41 59 75 108 308 444 618 934 843 1330 37 66 77 136 88 155 84 148 227 420
335 635 86 172 212 434 212 441 0 1 17 40 38 86 22 46 69 155 106 243 38 88
74 174 81 190 50 114 196 499 266 705 131 379 282 914 348 1231 11 52 31 146
45 209 13 63 27 137 31 164 3 27 8 53 10 57 3 4 7 24 10 45 3 22 8 50 10 64
16 90 58 392 70 500 3 30 9 75 12 100 6 51 8 67 18 200 3 52 8 111 10 130 25
227 25 1068 0 1460 -3 36 -7 106 -10 155 -3 50 -7 119 -10 155 -3 36 -8 94
-10 130 -5 61 -11 123 -20 215 -18 168 -37 334 -40 355 -3 24 -11 84 -20 158
-2 18 -6 45 -9 60 -3 15 -8 47 -11 72 -7 50 -15 104 -20 129 -1 9 -6 36 -10
61 -4 25 -9 54 -11 65 -3 11 -6 36 -9 55 -3 19 -7 46 -10 60 -3 14 -9 48 -15
75 -5 28 -12 66 -15 85 -10 58 -74 360 -94 445 -11 44 -34 139 -51 210 -18 72
-36 144 -41 160 -5 17 -39 133 -75 259 -250 866 -591 1638 -1069 2424 -60 99
-261 401 -307 462 -10 14 -78 104 -150 200 -254 338 -488 606 -798 913 -113
112 -250 243 -305 292 -55 49 -102 92 -105 95 -3 3 -30 25 -60 50 -30 25 -61
51 -69 58 -39 37 -350 281 -452 355 -13 9 -53 38 -89 64 -68 50 -389 263 -487
324 -592 369 -1313 706 -2044 954 -139 47 -497 159 -546 170 -10 2 -61 16
-113 30 -244 68 -670 168 -843 199 -15 3 -87 16 -160 30 -73 14 -150 28 -172
31 -57 8 -93 14 -150 25 -27 5 -70 11 -95 15 -25 3 -54 7 -65 9 -20 3 -88 13
-152 22 -18 2 -48 6 -65 8 -152 20 -183 24 -263 31 -33 4 -71 8 -85 10 -14 3
-59 7 -100 11 -41 3 -87 7 -101 9 -14 3 -63 7 -110 10 -46 3 -104 7 -129 10
-25 3 -83 8 -130 10 -47 2 -123 7 -170 10 -198 14 -310 17 -770 20 -479 3
-690 -4 -910 -30 -19 -2 -64 -7 -100 -10 -88 -9 -140 -15 -170 -20 -14 -2 -59
-8 -100 -14 -118 -16 -148 -21 -270 -43 -63 -11 -126 -22 -140 -24 -14 -2 -36
-7 -50 -10 -14 -3 -36 -8 -50 -10 -14 -3 -65 -13 -115 -24 -49 -11 -99 -22
-110 -24 -11 -3 -85 -21 -165 -40 -80 -20 -152 -38 -160 -40 -239 -58 -901
-273 -1090 -353 -8 -3 -17 -7 -20 -7 -25 -7 -424 -171 -545 -225 -282 -126
-769 -365 -1005 -492 -128 -69 -445 -249 -550 -313 -47 -28 -93 -55 -102 -61
-9 -5 -45 -27 -80 -48 -70 -42 -237 -145 -265 -164 -10 -7 -54 -36 -98 -64
-111 -72 -450 -299 -505 -337 -25 -18 -79 -55 -120 -84 -177 -122 -755 -552
-877 -652 -10 -8 -101 -82 -202 -163 -101 -81 -198 -159 -215 -173 -32 -25
-115 -95 -222 -185 -32 -27 -95 -81 -139 -120 -44 -38 -91 -79 -104 -90 -13
-11 -29 -25 -35 -30 -6 -6 -42 -37 -81 -70 -38 -33 -76 -67 -85 -75 -9 -8 -35
-31 -58 -51 -159 -138 -675 -622 -818 -768 -35 -35 -67 -62 -72 -60 -5 2 -92
84 -193 181 -205 197 -229 219 -390 368 -63 58 -125 116 -140 130 -14 14 -43
40 -65 59 -21 19 -62 55 -90 80 -28 25 -79 71 -114 101 -35 30 -75 66 -90 80
-15 14 -40 36 -56 49 -48 40 -229 196 -234 201 -8 9 -340 282 -395 326 -27 21
-59 47 -70 57 -11 10 -45 37 -75 60 -30 23 -57 44 -60 48 -23 25 -643 492
-790 594 -47 32 -87 62 -90 65 -5 7 -210 147 -430 294 -826 554 -1748 1059
-2515 1377 -66 28 -133 56 -150 63 -361 157 -1038 380 -1460 482 -33 8 -78 19
-99 25 -22 6 -48 13 -58 15 -10 2 -26 6 -35 8 -77 18 -437 89 -513 101 -52 8
-106 17 -120 19 -38 7 -182 28 -210 31 -14 2 -52 6 -85 9 -33 4 -76 8 -95 11
-44 6 -113 12 -210 21 -41 3 -95 8 -120 11 -54 5 -1006 14 -1011 9z m896
-2909 c11 -2 56 -8 99 -12 43 -4 86 -8 95 -10 9 -1 45 -6 81 -10 36 -3 72 -8
80 -10 8 -3 44 -9 80 -14 105 -16 130 -21 225 -41 50 -10 101 -21 115 -23 21
-4 212 -50 260 -62 8 -3 31 -9 50 -14 252 -67 743 -235 925 -316 17 -7 53 -23
81 -34 58 -22 115 -47 304 -132 192 -87 740 -367 820 -420 8 -5 31 -17 50 -27
29 -14 168 -95 255 -149 11 -7 26 -15 34 -19 7 -4 57 -34 110 -67 53 -32 116
-71 140 -85 146 -89 666 -440 846 -572 28 -20 111 -81 185 -135 74 -54 137
-102 140 -105 3 -3 21 -17 40 -30 19 -13 37 -27 40 -30 3 -4 12 -11 21 -16 9
-5 34 -23 55 -41 22 -17 122 -97 224 -178 102 -80 205 -163 230 -183 127 -105
302 -253 364 -307 6 -5 40 -35 76 -65 36 -30 72 -62 80 -70 8 -8 71 -65 140
-125 69 -61 134 -119 146 -130 11 -11 45 -42 75 -69 355 -319 1012 -981 1295
-1306 21 -25 41 -47 44 -50 3 -3 46 -52 95 -110 187 -219 314 -322 517 -417
204 -97 402 -138 653 -138 77 0 165 4 195 8 370 48 702 222 913 481 21 25 43
51 50 58 7 7 43 49 81 93 39 44 75 85 80 90 6 6 26 28 45 50 216 254 826 867
1235 1240 54 50 104 95 110 101 9 9 87 78 231 206 33 29 43 38 130 113 32 28
93 79 134 115 299 258 936 757 1237 970 710 501 1253 833 1884 1152 113 57
210 105 215 107 6 2 48 22 95 43 237 110 553 240 775 318 66 23 127 44 135 48
8 3 17 6 20 7 3 1 12 4 20 7 13 5 177 55 240 74 14 4 26 6 27 6 2 -1 22 6 45
14 65 23 268 73 481 119 59 13 299 56 337 60 25 3 56 8 70 10 37 6 130 17 170
20 19 2 80 7 135 12 55 4 264 8 465 8 396 0 632 -8 910 -31 41 -3 95 -7 120
-9 104 -8 206 -18 223 -21 10 -2 46 -6 80 -9 34 -3 78 -7 97 -10 135 -17 161
-20 230 -30 25 -4 56 -8 70 -10 716 -97 1536 -318 2148 -579 273 -116 596
-276 734 -363 21 -12 40 -23 43 -23 9 0 287 -175 380 -238 422 -290 829 -652
1130 -1006 28 -32 55 -63 60 -70 6 -6 44 -54 85 -106 41 -52 79 -100 85 -106
5 -6 17 -21 25 -34 8 -12 37 -52 64 -88 101 -138 264 -396 375 -592 17 -30 77
-147 132 -260 115 -232 134 -274 193 -420 15 -36 31 -74 36 -85 127 -288 348
-1057 414 -1440 2 -11 11 -58 20 -105 15 -85 22 -125 30 -177 10 -68 19 -119
21 -133 2 -8 6 -37 9 -65 4 -27 9 -63 11 -80 26 -189 57 -491 71 -695 21 -320
27 -506 28 -840 0 -273 -6 -456 -19 -590 -2 -19 -6 -66 -10 -105 -3 -38 -7
-81 -10 -95 -2 -14 -7 -47 -10 -75 -7 -61 -16 -134 -20 -157 -2 -9 -7 -38 -11
-65 -3 -26 -8 -57 -10 -68 -2 -11 -9 -49 -15 -85 -5 -35 -24 -128 -40 -205
-17 -77 -33 -151 -35 -165 -3 -14 -23 -95 -45 -180 -23 -85 -42 -162 -44 -170
-50 -214 -296 -909 -415 -1175 -12 -27 -28 -64 -35 -80 -8 -17 -24 -53 -36
-80 -12 -28 -23 -52 -24 -55 -1 -3 -15 -34 -32 -70 -17 -36 -49 -104 -71 -151
-107 -228 -271 -542 -402 -769 -20 -36 -49 -85 -62 -110 -183 -329 -700 -1118
-915 -1395 -13 -16 -27 -35 -31 -40 -28 -39 -218 -291 -222 -295 -3 -3 -53
-66 -110 -140 -58 -74 -121 -153 -140 -176 -19 -23 -69 -84 -110 -135 -41 -51
-82 -100 -90 -109 -8 -8 -59 -67 -112 -130 -53 -63 -109 -129 -125 -147 -27
-30 -121 -137 -153 -173 -249 -284 -584 -629 -1001 -1030 -117 -113 -272 -262
-344 -331 -71 -70 -153 -148 -181 -175 -82 -79 -481 -463 -560 -539 -39 -38
-161 -155 -269 -260 -109 -104 -230 -221 -270 -260 -317 -306 -509 -491 -560
-540 -57 -54 -443 -427 -565 -545 -31 -30 -148 -143 -260 -250 -111 -107 -230
-222 -264 -255 -194 -187 -520 -501 -576 -555 -36 -34 -159 -153 -274 -264
-115 -110 -237 -228 -271 -261 -192 -184 -487 -469 -550 -530 -40 -38 -164
-158 -275 -265 -111 -107 -228 -220 -260 -250 -31 -30 -155 -150 -276 -266
-120 -117 -248 -240 -284 -274 -36 -34 -159 -154 -275 -265 -115 -112 -244
-236 -286 -276 -149 -144 -475 -458 -545 -526 -39 -37 -167 -161 -285 -274
-118 -114 -245 -237 -284 -274 -38 -37 -160 -154 -270 -260 -110 -106 -230
-221 -266 -256 -37 -35 -165 -159 -285 -275 -121 -117 -244 -236 -275 -265
-31 -30 -162 -155 -290 -279 -128 -124 -254 -245 -280 -270 -25 -25 -142 -137
-259 -250 -117 -113 -241 -232 -275 -265 -34 -33 -165 -159 -290 -280 -126
-121 -249 -240 -275 -265 -26 -25 -141 -136 -256 -247 -115 -110 -243 -233
-284 -273 -41 -40 -165 -159 -275 -265 -110 -106 -231 -224 -270 -261 -120
-115 -322 -310 -563 -542 -127 -123 -255 -247 -285 -275 -30 -29 -146 -140
-257 -247 -111 -107 -236 -228 -277 -267 -49 -47 -80 -70 -88 -65 -7 4 -108
99 -225 212 -117 113 -238 230 -270 260 -48 46 -262 252 -575 555 -116 112
-490 472 -546 526 -31 30 -148 142 -260 250 -112 108 -236 228 -276 265 -39
38 -162 157 -273 264 -111 107 -232 224 -269 260 -38 36 -160 154 -272 262
-112 108 -238 229 -279 269 -100 95 -493 475 -590 569 -43 41 -167 161 -276
265 -108 105 -225 217 -259 250 -35 33 -158 152 -275 265 -117 113 -245 237
-285 275 -125 121 -474 457 -545 525 -37 36 -163 157 -280 270 -117 113 -236
228 -265 255 -28 28 -152 147 -275 265 -338 326 -343 331 -565 545 -324 312
-675 650 -914 881 -69 67 -155 150 -191 184 -36 34 -157 151 -270 260 -113
109 -237 229 -276 267 -40 37 -163 156 -275 264 -112 108 -238 230 -280 270
-42 41 -168 162 -279 269 -111 107 -237 229 -280 270 -43 41 -169 163 -280
270 -111 107 -234 226 -274 264 -39 37 -168 162 -286 276 -118 114 -244 236
-280 270 -36 34 -157 151 -270 260 -113 109 -234 226 -270 260 -36 34 -157
151 -270 260 -113 109 -237 229 -277 267 -39 37 -131 127 -205 198 -113 109
-291 281 -617 595 -32 30 -151 145 -266 255 -279 268 -692 680 -841 840 -139
149 -393 434 -509 570 -27 33 -79 93 -115 135 -176 203 -551 684 -815 1045
-120 164 -345 493 -345 505 0 4 -3 10 -8 12 -7 3 -26 31 -124 183 -448 698
-812 1392 -1095 2090 -78 192 -179 471 -223 615 -17 58 -36 114 -41 125 -15
37 -159 578 -173 652 -3 16 -17 87 -31 158 -15 72 -28 143 -30 159 -3 15 -6
35 -9 45 -3 9 -8 36 -11 61 -3 25 -8 52 -10 60 -2 8 -6 40 -10 71 -3 31 -7 65
-9 75 -2 11 -9 69 -15 129 -7 61 -14 128 -16 150 -27 248 -27 1029 0 1405 14
197 21 279 31 378 3 31 7 73 9 92 7 75 22 206 31 260 2 14 6 50 9 80 4 30 8
62 10 70 2 8 7 38 11 65 3 28 8 59 11 70 2 11 6 36 9 55 2 19 9 58 14 85 5 28
12 66 15 85 3 19 12 67 20 105 8 39 16 81 19 95 2 14 9 45 15 70 5 25 12 56
15 70 3 14 17 72 31 130 15 58 28 115 31 126 24 125 177 608 264 834 100 261
283 661 389 845 108 190 157 270 259 425 63 96 118 177 121 180 3 3 45 57 92
120 319 426 716 820 1155 1144 71 53 134 99 139 103 19 15 270 179 310 204 54
32 62 37 152 89 43 24 92 52 108 62 77 45 396 202 540 265 529 234 1090 408
1741 539 121 24 242 46 270 49 27 3 56 8 64 10 8 3 60 11 115 19 160 24 179
27 203 31 13 2 53 7 90 10 37 4 74 8 82 10 8 3 47 7 85 10 39 3 80 8 93 10 12
2 62 7 110 11 48 3 95 8 104 9 9 2 68 7 130 11 62 3 124 8 138 9 14 2 108 7
210 10 102 4 187 9 188 10 6 6 836 -2 857 -8z"/>
<path d="M14250 28909 c-235 -25 -440 -194 -513 -424 l-22 -70 0 -3100 c0
-1705 3 -3129 7 -3165 6 -53 31 -193 42 -235 38 -140 79 -251 138 -370 28 -55
55 -106 60 -113 6 -7 18 -26 27 -42 63 -116 278 -355 414 -460 131 -101 255
-174 401 -236 l101 -43 1 -3663 c1 -2015 4 -3690 7 -3723 42 -452 372 -867
805 -1011 197 -66 216 -67 1002 -66 371 0 690 3 708 6 17 3 47 8 65 11 296 48
590 232 777 488 114 157 197 378 216 572 3 33 6 1709 7 3724 l2 3663 71 29
c191 75 399 210 563 364 66 61 180 197 245 289 98 138 225 420 260 577 20 87
37 181 43 238 9 82 10 6225 2 6266 -24 110 -55 180 -116 260 -160 210 -435
291 -679 200 -74 -28 -95 -39 -159 -88 -103 -78 -180 -195 -216 -327 -17 -61
-18 -187 -18 -2070 -1 -1103 -4 -2018 -6 -2035 -36 -207 -160 -375 -342 -461
-81 -39 -138 -51 -244 -53 -295 -6 -552 216 -596 514 -3 22 -6 946 -7 2055
l-2 2015 -22 65 c-84 253 -314 422 -572 421 -88 -1 -113 -5 -194 -32 -197 -66
-365 -259 -392 -449 -3 -19 -7 -41 -9 -48 -3 -7 -5 -916 -5 -2020 0 -1771 -2
-2014 -16 -2067 -51 -201 -205 -366 -401 -429 -68 -22 -92 -25 -193 -22 -83 2
-131 9 -172 23 -204 71 -369 266 -402 473 -3 19 -6 940 -6 2045 -1 2175 2
2048 -54 2171 -110 240 -349 380 -606 353z"/>
<path d="M23777 28914 c-1 -1 -49 -4 -107 -8 -58 -3 -114 -8 -125 -10 -11 -2
-45 -7 -76 -10 -31 -4 -65 -8 -75 -10 -11 -2 -39 -7 -64 -11 -96 -15 -351 -85
-475 -130 -286 -103 -625 -293 -845 -472 -390 -317 -714 -740 -884 -1153 -15
-36 -34 -79 -41 -96 -23 -49 -106 -310 -120 -373 -23 -108 -45 -215 -50 -251
-3 -25 -8 -56 -10 -70 -2 -14 -7 -56 -12 -95 -4 -38 -8 -1818 -8 -3955 l0
-3885 24 -48 c30 -62 87 -118 148 -149 l48 -23 1081 -3 1082 -2 0 -2433 c1
-1337 3 -2450 6 -2472 11 -85 18 -121 28 -155 62 -208 131 -342 243 -475 208
-247 491 -399 800 -430 39 -4 367 -8 730 -8 620 1 727 4 838 29 9 2 25 6 35 8
73 17 261 96 327 138 254 163 428 384 519 659 19 57 37 127 41 154 3 28 9 66
12 85 3 19 6 3431 6 7581 0 5962 -3 7557 -13 7600 -24 105 -85 215 -164 292
-40 40 -90 81 -112 92 -21 11 -41 23 -44 26 -8 9 -130 48 -175 55 -32 5 -2562
13 -2568 8z"/>
</g>
</svg>
