<svg version="1.1"
	xmlns="http://www.w3.org/2000/svg"
	viewBox="0 0 100 100">
	 <path d="M47.2,42.5c0,3.5-2.3,6.7-5.6,7.9v34.1c0,3.1-2.5,5.6-5.6,5.6h-5.6c-3.1,0-5.6-2.5-5.6-5.6V50.4c-3.3-1.2-5.6-4.4-5.6-7.9
		v-28c0-1.5,1.3-2.8,2.8-2.8s2.8,1.3,2.8,2.8v18.2c0,1.5,1.3,2.8,2.8,2.8s2.8-1.3,2.8-2.8V14.4c0-1.5,1.3-2.8,2.8-2.8
		s2.8,1.3,2.8,2.8v18.2c0,1.5,1.3,2.8,2.8,2.8s2.8-1.3,2.8-2.8V14.4c0-1.5,1.3-2.8,2.8-2.8s2.8,1.3,2.8,2.8V42.5z M80.8,84.5
		c0,3.1-2.5,5.6-5.6,5.6h-5.6c-3.1,0-5.6-2.5-5.6-5.6V62.1h-9.8c-0.7,0-1.4-0.7-1.4-1.4v-35c0-7.7,6.3-14,14-14H78
		c1.5,0,2.8,1.3,2.8,2.8V84.5z"/>
</svg>
