<svg version="1.1"
	xmlns="http://www.w3.org/2000/svg"
	viewBox="0 0 100 100">
	<path d="M82.2,55.3c-0.2,0.3-0.6,0.4-0.9,0.5c0,0-0.1,0-0.1,0c-0.3,0-0.7-0.1-0.9-0.3L50,30.2L19.7,55.5c-0.3,0.2-0.7,0.4-1.1,0.3
		c-0.3,0-0.7-0.2-0.9-0.5L15,52.1c-0.5-0.6-0.4-1.5,0.2-2l31.5-26.2c1.8-1.5,4.8-1.5,6.7,0L64,32.8v-8.5c0-0.8,0.6-1.4,1.4-1.4h8.4
		c0.8,0,1.4,0.6,1.4,1.4v17.9l9.6,8c0.6,0.5,0.7,1.4,0.2,2L82.2,55.3z M75.2,76.1c0,1.5-1.3,2.8-2.8,2.8H55.6V62.1H44.4v16.8H27.6
		c-1.5,0-2.8-1.3-2.8-2.8v-21c0-0.1,0-0.2,0-0.3L50,34.1l25.2,20.7c0,0.1,0,0.2,0,0.3V76.1z"/>
</svg>
