<svg version="1.1"
	xmlns="http://www.w3.org/2000/svg"
	viewBox="0 0 100 100">
	<path d="M89.2,78.9c0,3.1-2.5,5.6-5.6,5.6H16.4c-3.1,0-5.6-2.5-5.6-5.6v-56c0-3.1,2.5-5.6,5.6-5.6h67.2c3.1,0,5.6,2.5,5.6,5.6V78.9
		z M83.6,34.1v-5.2v-6H47.4l-2.8,5.6H16.4v5.6H83.6z M83.6,78.9v-5.6H16.4v5.6H83.6z M38.8,25.7v-5.6H22v5.6H38.8z M50,37
		c-9.3,0-16.8,7.5-16.8,16.8c0,9.3,7.5,16.8,16.8,16.8c9.3,0,16.8-7.5,16.8-16.8C66.8,44.5,59.3,37,50,37z M50,65
		c-6.2,0-11.2-5-11.2-11.2c0-6.2,5-11.2,11.2-11.2s11.2,5,11.2,11.2C61.2,59.9,56.2,65,50,65z M50,46.7c-3.8,0-7,3.1-7,7
		c0,0.8,0.6,1.4,1.4,1.4s1.4-0.6,1.4-1.4c0-2.3,1.9-4.2,4.2-4.2c0.8,0,1.4-0.6,1.4-1.4S50.8,46.7,50,46.7z"/>
</svg>
