<svg version="1.1"
	xmlns="http://www.w3.org/2000/svg"
	viewBox="0 0 100 100">
	<path d="M83.4,64.7c-0.3,5.4-1.5,10.1-5.4,14.1c-3.9,3.9-8.7,5.2-14.1,5.4c-4.6,0.3-9.2,0.2-13.9,0.2s-9.2,0-13.9-0.2
		C30.8,84,26,82.8,22.1,78.8c-3.9-3.9-5.2-8.7-5.4-14.1c-0.3-4.6-0.2-9.2-0.2-13.9s0-9.2,0.2-13.9c0.3-5.4,1.5-10.1,5.4-14.1
		c3.9-3.9,8.7-5.2,14.1-5.4c4.6-0.3,9.2-0.2,13.9-0.2s9.2,0,13.9,0.2c5.4,0.3,10.1,1.5,14.1,5.4c3.9,3.9,5.2,8.7,5.4,14.1
		c0.3,4.6,0.2,9.2,0.2,13.9S83.6,60.1,83.4,64.7z M30.2,24.7c-1.5,0.6-2.7,1.4-3.8,2.5c-1.2,1.2-1.9,2.3-2.5,3.8
		c-1.7,4.4-1.4,14.9-1.4,19.8c0,4.9-0.4,15.4,1.4,19.8c0.6,1.5,1.4,2.7,2.5,3.8s2.3,1.9,3.8,2.5c4.4,1.7,14.9,1.4,19.8,1.4
		c4.9,0,15.4,0.4,19.8-1.4c1.5-0.6,2.7-1.4,3.8-2.5c1.2-1.2,1.9-2.3,2.5-3.8c1.8-4.4,1.4-14.9,1.4-19.8c0-4.9,0.4-15.4-1.4-19.8
		c-0.6-1.5-1.4-2.7-2.5-3.8c-1.2-1.2-2.3-1.9-3.8-2.5c-4.4-1.7-14.9-1.4-19.8-1.4C45.1,23.3,34.6,22.9,30.2,24.7z M50,68.1
		c-9.5,0-17.2-7.7-17.2-17.2c0-9.5,7.7-17.2,17.2-17.2c9.5,0,17.2,7.7,17.2,17.2C67.2,60.4,59.5,68.1,50,68.1z M50,39.7
		c-6.2,0-11.2,5-11.2,11.2s5,11.2,11.2,11.2c6.2,0,11.2-5,11.2-11.2S56.2,39.7,50,39.7z M67.9,37c-2.2,0-4-1.8-4-4c0-2.2,1.8-4,4-4
		s4,1.8,4,4C72,35.2,70.2,37,67.9,37z"/>
</svg>
