<svg version="1.1"
	xmlns="http://www.w3.org/2000/svg"
	viewBox="0 0 100 100">
	<path d="M86.4,71.9c0,0.8-0.6,1.4-1.4,1.4h-4.2v9.8c0,3.8-3.1,7-7,7H20.6c-3.8,0-7-3.1-7-7V18.7c0-3.8,3.1-7,7-7h53.2
		c3.8,0,7,3.1,7,7v9.8H85c0.8,0,1.4,0.6,1.4,1.4v8.4c0,0.8-0.6,1.4-1.4,1.4h-4.2v5.6H85c0.8,0,1.4,0.6,1.4,1.4v8.4
		c0,0.8-0.6,1.4-1.4,1.4h-4.2v5.6H85c0.8,0,1.4,0.6,1.4,1.4V71.9z M56.5,49.5c-2.4,1.4-5.7,3.8-9.3,3.8s-6.9-2.4-9.3-3.8
		c-7.8,0-9.7,8.6-9.7,16.4c0,4.3,2.8,7.4,6.3,7.4h25.2c3.5,0,6.3-3.1,6.3-7.4C66.1,58.1,64.3,49.5,56.5,49.5z M47.2,28.5
		c-6.3,0-11.4,5.1-11.4,11.4c0,6.3,5.1,11.3,11.4,11.3c6.3,0,11.4-5.1,11.4-11.3C58.6,33.6,53.5,28.5,47.2,28.5z"/>
</svg>
