<svg version="1.1"
	xmlns="http://www.w3.org/2000/svg"
	viewBox="0 0 100 100">
	<path d="M83.6,50c0,18.2-14.8,33-33,33c-5.6,0-11.1-1.4-16-4.1l-18.2,5.9L22.4,67c-3.1-5.1-4.7-11-4.7-17c0-18.2,14.8-33,33-33
		S83.6,31.8,83.6,50z M78.1,50c0-15.1-12.3-27.5-27.5-27.5c-15.1,0-27.5,12.3-27.5,27.5c0,5.8,1.8,11.4,5.2,16.1l-3.5,10.2l10.6-3.4
		c4.5,2.9,9.8,4.5,15.1,4.5C65.7,77.5,78.1,65.1,78.1,50z M67.7,58.5c0.1,0.2,0.1,0.5,0.1,0.7c0,1.1-0.3,2.3-0.7,3.3
		c-1,2.4-5.1,4-7.6,4c-2.1,0-6.4-1.8-8.3-2.7C44.9,61,41,56.1,37.2,50.6c-1.7-2.4-3.1-5.5-3.1-8.5v-0.4c0.1-2.9,1.1-4.9,3.2-6.9
		c0.7-0.6,1.4-1,2.3-1c0.5,0,1,0.1,1.6,0.1c1.2,0,1.4,0.3,1.8,1.5c0.3,0.7,2.5,6.7,2.5,7.1c0,1.7-3,3.5-3,4.5c0,0.2,0.1,0.4,0.2,0.7
		c1,2.1,2.8,4.4,4.5,6c2,1.9,4.2,3.2,6.6,4.4c0.3,0.2,0.6,0.3,1,0.3c1.3,0,3.5-4.2,4.6-4.2C60.2,54.3,67.4,58,67.7,58.5z"/>
</svg>
