<?xml version="1.0" standalone="no"?>
<!DOCTYPE svg PUBLIC "-//W3C//DTD SVG 20010904//EN"
 "http://www.w3.org/TR/2001/REC-SVG-20010904/DTD/svg10.dtd">
<svg version="1.0" xmlns="http://www.w3.org/2000/svg"
 width="1000.000000pt" height="1000.000000pt" viewBox="0 0 1000.000000 1000.000000"
 preserveAspectRatio="xMidYMid meet">
<metadata>
Created by potrace 1.11, written by Peter Selinger 2001-2013
</metadata>
<g transform="translate(0.000000,1000.000000) scale(0.100000,-0.100000)"
fill="#000000" stroke="none">
<path d="M4254 9142 c-16 -10 -10 -53 8 -63 9 -5 19 -20 22 -34 4 -14 13 -25
22 -25 8 0 13 -4 9 -9 -3 -5 4 -12 15 -16 12 -4 20 -15 20 -28 0 -18 2 -19 10
-7 5 8 12 12 15 8 11 -11 -27 -39 -45 -33 -10 3 -21 2 -24 -3 -3 -6 3 -12 14
-15 11 -3 20 -11 20 -19 0 -17 42 -49 89 -68 31 -12 32 -14 15 -27 -10 -7 -26
-13 -36 -13 -41 0 -8 -58 47 -84 37 -18 132 -25 153 -12 9 5 8 15 -4 38 -15
29 -15 30 1 24 9 -3 19 -6 21 -6 2 0 4 -14 4 -31 0 -22 5 -32 20 -36 10 -3 26
-16 35 -29 14 -22 14 -25 0 -30 -8 -3 -22 -4 -30 -1 -8 4 -17 2 -20 -2 -2 -5
10 -12 28 -16 17 -4 26 -9 20 -12 -19 -7 -16 -19 5 -20 89 -4 147 -32 147 -71
0 -22 5 -24 54 -28 29 -2 61 -9 70 -14 13 -8 11 -9 -9 -6 -14 2 -31 -1 -37 -6
-9 -7 -13 -7 -13 1 0 6 -7 11 -15 11 -18 0 -20 -20 -2 -21 6 0 -8 -8 -33 -18
-47 -18 -108 -20 -210 -6 -30 4 -66 9 -80 11 -64 7 -102 20 -185 58 -38 18
-88 39 -110 46 -71 23 -121 60 -80 60 20 0 19 12 -7 57 -44 77 -74 98 -103 69
-10 -10 -11 -16 -2 -25 22 -22 -5 -10 -48 22 -24 17 -44 40 -45 50 0 9 -7 17
-15 17 -9 0 -18 7 -22 16 -3 8 -12 13 -19 10 -7 -3 -16 -1 -19 4 -8 12 -85 7
-112 -8 -13 -7 -23 -20 -23 -28 0 -11 -6 -13 -20 -9 -12 4 -26 0 -36 -10 -11
-10 -25 -14 -40 -11 -12 3 -25 2 -29 -4 -8 -13 17 -50 35 -50 23 -1 48 -23 50
-45 5 -47 1 -56 -24 -49 -13 3 -43 0 -67 -7 -24 -6 -66 -13 -94 -15 -60 -5
-68 -6 -120 -24 -44 -15 -121 -55 -146 -76 -8 -8 -21 -14 -27 -14 -7 0 -12 -4
-12 -10 0 -5 -13 -31 -30 -56 -16 -26 -33 -63 -36 -81 -4 -22 -17 -41 -38 -55
-88 -61 -176 -130 -176 -139 0 -6 -4 -8 -9 -5 -5 4 -11 3 -13 -1 -1 -5 -27
-28 -56 -52 l-54 -44 5 30 c3 16 19 45 37 64 64 68 99 172 104 309 1 25 5 51
9 58 5 6 6 13 3 13 -23 5 -35 4 -61 -9 -32 -16 -90 -61 -90 -71 0 -3 -5 -13
-10 -21 -39 -61 -60 -136 -58 -207 1 -18 -4 -33 -9 -33 -6 0 -4 -7 3 -16 12
-15 19 -48 19 -101 0 -35 -3 -44 -31 -74 -15 -15 -28 -31 -30 -36 -6 -12 -83
-63 -97 -63 -7 0 -12 -4 -12 -8 0 -4 -14 -13 -30 -19 -33 -13 -34 -15 12 53
15 23 34 47 42 53 15 12 32 66 28 88 -2 6 2 14 7 17 5 4 4 27 -4 58 -8 28 -12
55 -9 60 3 4 1 8 -5 8 -6 0 -8 7 -5 15 4 8 1 22 -6 30 -6 8 -13 39 -13 70 -2
38 -6 54 -14 51 -6 -3 -13 0 -15 6 -3 8 -9 8 -24 0 -10 -6 -14 -12 -9 -12 6 0
-1 -10 -15 -23 -32 -28 -55 -64 -64 -101 -6 -23 -9 -27 -17 -15 -5 7 -9 12
-10 9 -3 -19 -9 -59 -10 -83 -1 -19 -6 -26 -16 -23 -7 3 -13 1 -13 -4 0 -6 5
-10 10 -10 6 0 10 -19 10 -43 0 -49 20 -159 30 -167 11 -9 40 -90 32 -90 -4 0
-6 -17 -4 -39 3 -34 0 -42 -32 -67 -25 -21 -34 -34 -30 -47 4 -13 0 -20 -16
-24 -12 -3 -19 -11 -16 -19 3 -8 -4 -19 -15 -24 -19 -11 -20 -9 -15 64 3 42 8
81 11 87 4 5 -2 29 -13 52 -10 23 -25 60 -32 82 -7 22 -21 50 -31 63 -10 13
-21 37 -24 55 -10 45 -12 47 -45 36 -21 -8 -28 -16 -25 -30 2 -10 0 -19 -6
-19 -5 0 -8 -3 -7 -7 3 -15 -14 -63 -23 -63 -9 0 -9 -3 -10 -144 0 -100 16
-147 70 -203 37 -39 39 -45 8 -34 -17 7 -29 3 -50 -15 -15 -12 -27 -27 -27
-33 0 -5 -9 -13 -20 -16 -11 -4 -31 -16 -44 -29 -20 -18 -22 -24 -11 -39 13
-18 81 -25 70 -7 -3 6 1 7 9 4 19 -7 20 -18 3 -32 -8 -7 -18 -7 -27 -2 -39 25
-110 -9 -96 -45 2 -8 -6 -21 -20 -30 -20 -13 -22 -19 -14 -35 13 -25 13 -30
-5 -30 -8 0 -15 -4 -15 -9 0 -12 26 -32 33 -25 3 3 13 2 22 -4 15 -8 11 -16
-27 -63 -50 -64 -78 -111 -78 -133 0 -20 16 -21 24 -1 3 8 12 12 20 9 11 -4
13 -12 5 -31 -5 -13 -7 -37 -4 -53 5 -26 2 -29 -43 -39 -91 -20 -122 -18 -122
10 0 11 -6 27 -14 35 -19 18 -32 18 -17 0 10 -12 9 -17 -6 -24 -10 -5 -23 -8
-28 -6 -10 4 -49 -52 -50 -70 0 -5 -10 -12 -22 -17 -17 -6 -25 -3 -38 18 -10
15 -14 34 -11 49 4 16 0 30 -14 44 -23 23 -40 26 -40 6 0 -13 -20 -26 -41 -26
-18 0 -8 28 12 33 27 7 15 27 -16 27 -35 0 -55 -10 -55 -28 0 -13 3 -12 20 3
19 17 19 17 15 -3 -4 -20 17 -45 45 -55 8 -2 -20 -2 -62 0 -66 5 -79 3 -84
-11 -3 -9 -12 -16 -20 -16 -8 0 -14 -9 -14 -20 0 -19 -13 -25 -53 -21 -9 1
-17 -3 -17 -8 0 -6 16 -11 36 -11 21 0 33 -4 29 -10 -3 -5 -16 -10 -28 -10
-14 0 -18 -3 -11 -10 12 -12 62 -19 139 -19 41 -1 51 -4 52 -18 1 -10 4 -31 7
-48 2 -16 4 -34 5 -38 1 -4 11 -2 24 4 20 11 21 11 8 -5 -18 -22 -10 -29 21
-17 28 11 81 69 73 81 -3 4 2 10 10 13 9 4 12 1 9 -8 -3 -8 -1 -22 4 -31 9
-16 13 -15 42 14 17 18 35 32 38 32 9 0 45 39 66 73 10 15 22 27 27 27 18 0
105 45 172 88 38 24 71 41 74 38 4 -3 2 -6 -4 -6 -6 0 -13 -8 -17 -17 -6 -20
-33 -66 -59 -103 -9 -13 -17 -34 -17 -46 0 -12 -7 -27 -15 -34 -8 -7 -15 -21
-15 -32 0 -24 -40 -78 -58 -78 -15 0 -82 -65 -82 -79 0 -12 -29 -35 -47 -37
-8 -1 -20 -9 -26 -18 -18 -22 -53 -25 -49 -3 2 12 -4 17 -21 17 -12 0 -27 4
-33 9 -5 5 -23 12 -41 16 -24 5 -36 2 -51 -13 -14 -14 -32 -19 -58 -18 -20 1
-42 -3 -48 -10 -19 -18 -71 -7 -153 32 -83 39 -114 46 -120 27 -5 -14 136 -82
186 -90 20 -4 38 -9 41 -13 10 -14 80 -22 80 -9 0 8 13 10 39 6 45 -6 56 0 40
20 -14 16 -16 15 53 18 l57 2 -24 -19 c-14 -11 -28 -17 -33 -14 -4 2 -14 1
-22 -5 -13 -7 -12 -9 3 -9 21 0 -52 -69 -80 -75 -10 -2 -37 -8 -60 -13 -24 -5
-43 -8 -43 -6 0 3 -9 0 -20 -6 -16 -9 -24 -7 -36 5 -14 13 -17 13 -31 0 -8 -8
-19 -13 -24 -10 -14 9 -11 35 6 41 8 4 15 15 15 25 0 25 -36 25 -43 0 -3 -13
-12 -18 -32 -15 -15 1 -38 -4 -51 -12 -20 -14 -21 -19 -12 -40 9 -20 17 -24
35 -19 25 6 27 1 13 -30 -5 -11 -9 -14 -9 -6 -1 7 -7 11 -15 8 -8 -3 -16 -1
-18 4 -2 6 -19 12 -38 15 -19 3 -36 9 -38 13 -5 14 -64 -1 -70 -18 -3 -9 -12
-21 -20 -27 -9 -7 -13 -21 -10 -37 6 -33 -20 -63 -67 -76 -44 -12 -85 -49 -85
-77 0 -25 29 -36 54 -22 10 5 28 7 42 4 17 -5 26 -2 30 8 3 8 12 12 19 10 7
-3 16 -1 20 5 3 6 15 11 26 11 13 0 18 4 13 13 -4 6 1 5 11 -4 14 -14 15 -21
5 -39 -14 -26 -6 -38 14 -21 8 7 20 11 28 10 15 -3 78 28 78 39 0 4 12 15 25
25 l25 18 -5 -45 c-4 -45 -4 -46 25 -42 45 5 95 50 123 108 28 59 22 84 -20
73 -13 -3 -23 -1 -23 5 0 17 30 23 55 12 19 -9 26 -8 32 3 5 8 23 18 41 21 25
5 32 3 32 -9 0 -9 -4 -19 -10 -22 -5 -3 -10 -11 -10 -17 0 -6 9 -3 19 6 11 10
24 15 30 12 5 -4 22 14 36 38 14 25 41 54 60 65 l34 20 -21 -47 c-11 -26 -22
-56 -25 -67 -10 -39 -1 -129 18 -181 18 -48 19 -55 5 -88 -8 -20 -16 -40 -17
-44 -1 -4 -3 -11 -4 -17 -1 -5 -8 -35 -14 -65 -7 -30 -16 -73 -21 -95 -5 -22
-14 -64 -21 -93 -11 -50 -12 -52 -23 -30 -7 13 -13 55 -13 94 0 38 -8 90 -16
115 -17 50 -77 154 -107 187 -11 12 -20 28 -20 36 0 20 -22 11 -39 -16 -17
-27 -41 -120 -34 -132 6 -9 13 -49 16 -93 1 -13 5 -23 8 -23 4 0 19 -25 34
-55 16 -30 32 -55 37 -55 4 0 8 -7 8 -15 0 -8 6 -15 13 -15 7 0 23 -11 35 -25
12 -14 26 -25 31 -25 16 0 34 -60 33 -108 -1 -26 -5 -74 -11 -107 -5 -36 -5
-65 0 -71 6 -7 6 -21 1 -35 -5 -13 -8 -34 -6 -46 5 -28 -16 -30 -38 -3 -13 14
-18 45 -22 126 -3 69 -9 109 -16 114 -7 4 -9 13 -6 19 4 6 0 11 -9 11 -9 0
-13 4 -10 10 7 11 -10 47 -20 42 -3 -2 -29 17 -56 42 -28 25 -55 46 -60 46
-12 0 -65 54 -71 72 -4 10 -10 9 -29 -4 -21 -13 -24 -23 -23 -59 2 -57 13
-129 21 -142 3 -6 1 -7 -5 -3 -7 4 -12 2 -12 -3 0 -6 5 -11 10 -11 6 0 10 -7
10 -15 0 -8 5 -15 12 -15 6 0 9 -3 5 -6 -16 -16 60 -110 139 -174 23 -18 76
-44 86 -42 4 1 15 -10 25 -23 10 -14 26 -35 36 -47 19 -23 19 -21 22 -98 2
-32 -2 -58 -9 -62 -8 -6 -7 -10 2 -16 15 -10 23 -97 12 -127 -7 -19 -7 -19
-19 3 -6 12 -9 32 -5 46 6 25 -15 75 -46 109 -10 10 -24 32 -30 48 -7 15 -22
31 -34 35 -11 4 -45 22 -75 41 -30 19 -61 36 -70 38 -25 5 -73 32 -82 47 -7
10 -13 8 -30 -9 -22 -21 -22 -22 -4 -60 10 -21 19 -50 20 -64 1 -14 11 -35 23
-47 12 -12 22 -31 22 -42 0 -11 7 -20 15 -20 8 0 15 -4 15 -9 0 -6 18 -31 40
-56 22 -25 40 -44 40 -40 0 3 18 -4 40 -15 21 -11 54 -20 72 -20 36 0 82 -26
73 -41 -4 -5 -2 -9 4 -9 5 0 13 -10 17 -22 3 -13 13 -31 22 -40 8 -10 12 -18
9 -18 -3 0 -2 -13 3 -29 4 -15 4 -34 -1 -42 -4 -7 -4 -18 0 -24 8 -9 11 -39
15 -130 0 -22 5 -46 9 -52 4 -7 10 -41 13 -75 4 -61 3 -64 -31 -103 -19 -22
-34 -47 -34 -55 3 -36 -1 -46 -12 -27 -5 9 -15 17 -22 17 -15 0 -50 54 -66
103 -7 20 -17 37 -22 37 -5 0 -9 14 -9 31 0 28 -2 30 -16 18 -16 -13 -16 -5
-1 61 1 3 -6 24 -16 48 -19 48 -44 64 -59 38 -13 -24 -29 -9 -22 20 5 20 3 23
-12 18 -11 -4 -16 -4 -12 1 11 11 -11 35 -26 29 -7 -3 -26 2 -42 11 -19 10
-30 11 -33 4 -2 -6 -12 2 -22 18 -75 115 -94 128 -138 94 l-25 -19 29 -55 c15
-31 43 -72 60 -92 18 -19 36 -41 39 -48 3 -6 13 -23 23 -37 9 -14 11 -19 3
-13 -18 17 -40 16 -64 -2 -16 -12 -16 -16 -5 -27 21 -20 68 -42 75 -35 3 3 35
-16 71 -44 66 -51 123 -84 123 -73 0 34 176 -215 181 -256 2 -14 14 -39 26
-57 24 -33 29 -58 14 -67 -5 -3 -5 -24 0 -48 5 -24 11 -76 14 -117 3 -41 9
-79 14 -85 5 -6 8 -33 7 -61 -1 -27 8 -80 19 -117 l21 -67 -35 21 c-20 12 -38
25 -41 28 -3 3 -17 11 -33 17 -15 7 -27 17 -27 23 0 5 -6 10 -12 10 -27 1
-139 124 -144 157 -2 8 -10 23 -18 32 -12 13 -13 20 -4 29 14 14 -6 42 -29 42
-11 0 -13 7 -9 24 3 14 2 28 -4 31 -6 4 -4 19 5 42 21 49 19 100 -3 111 -26
14 -41 4 -48 -34 -7 -37 -15 -42 -34 -19 -10 12 -9 20 4 40 15 23 15 27 -6 70
-25 49 -46 61 -77 45 -12 -5 -30 -15 -41 -20 -26 -13 -63 -13 -55 0 3 6 -1 13
-9 16 -9 3 -16 14 -16 23 0 10 -11 28 -25 41 -27 26 -47 22 -69 -12 -8 -13 -2
-25 30 -56 21 -21 50 -51 64 -67 25 -27 25 -28 3 -23 -15 4 -32 -2 -49 -17
l-28 -24 31 -17 c17 -10 36 -26 42 -36 10 -16 7 -18 -23 -18 -62 0 -56 -26 12
-52 37 -15 44 -15 49 -2 4 11 16 4 50 -27 24 -22 68 -52 96 -65 46 -21 85 -56
199 -174 19 -19 47 -44 63 -55 25 -17 83 -65 121 -101 7 -6 25 -22 41 -35 23
-19 31 -37 36 -73 4 -27 12 -54 17 -61 10 -12 49 -122 50 -138 0 -5 -19 2 -43
16 -23 14 -62 36 -87 49 -71 39 -122 70 -156 95 -17 13 -40 23 -52 23 -12 0
-31 13 -44 30 -12 16 -29 32 -39 35 -10 3 -23 28 -33 64 -16 56 -34 84 -52 80
-14 -4 -64 23 -64 33 0 6 -6 8 -12 5 -7 -2 -21 2 -30 10 -15 13 -20 13 -42 -4
-17 -12 -23 -24 -20 -36 5 -14 1 -18 -13 -15 -10 2 -18 10 -19 18 -2 34 -5 38
-33 50 -22 9 -34 9 -50 0 -30 -15 -27 -21 24 -54 44 -27 45 -29 28 -48 -13
-15 -14 -21 -5 -27 10 -6 9 -11 -3 -21 -8 -7 -15 -16 -15 -20 0 -4 51 -33 114
-65 111 -56 115 -58 157 -47 40 10 48 9 104 -20 76 -39 73 -38 179 -98 49 -27
92 -50 96 -50 4 0 13 -7 20 -15 7 -8 16 -12 21 -9 5 3 9 0 9 -5 0 -6 5 -11 11
-11 29 0 112 -99 151 -180 23 -47 53 -103 66 -125 14 -22 26 -55 27 -72 0 -18
0 -33 -2 -33 -1 0 -18 7 -37 17 -34 16 -64 62 -52 81 6 10 -21 52 -34 52 -5 0
-21 -5 -35 -10 l-27 -10 21 -35 c11 -19 16 -35 11 -35 -14 0 -70 73 -70 92 0
20 -16 32 -25 18 -3 -5 1 -24 10 -42 l16 -33 -26 30 c-14 17 -24 38 -21 47 2
9 -3 19 -11 22 -21 8 -23 8 -23 -9 0 -21 -13 -19 -35 5 -10 11 -23 20 -30 20
-6 0 -40 21 -76 46 -56 40 -151 95 -200 115 -9 4 -21 4 -28 0 -9 -6 -1 -15 24
-30 20 -11 33 -26 30 -31 -3 -6 2 -13 12 -17 10 -4 50 -33 88 -64 39 -31 89
-66 113 -78 38 -19 99 -62 155 -107 9 -8 22 -14 27 -14 21 0 8 -20 -22 -35
-46 -22 -73 -44 -65 -52 4 -3 26 4 48 16 l41 23 -12 -22 c-15 -28 -6 -36 25
-22 13 6 26 8 29 3 3 -4 31 -9 63 -10 36 -1 69 -9 89 -22 17 -10 39 -19 49
-19 15 0 115 -65 115 -75 0 -7 -60 17 -66 26 -3 5 -13 9 -23 9 -10 0 -24 7
-31 15 -10 12 -24 14 -59 10 -25 -4 -59 -5 -76 -4 -74 7 -145 0 -182 -19 -36
-19 -123 -93 -123 -105 0 -10 46 17 102 60 77 59 135 68 101 17 -16 -24 -9
-31 16 -15 8 5 12 18 8 30 -5 19 -2 21 16 15 30 -9 33 -12 19 -26 -16 -16 -15
-28 2 -28 8 0 17 9 21 19 7 23 44 30 97 18 l36 -9 -31 -30 -32 -29 33 16 c18
9 36 23 39 31 7 18 15 18 39 -2 10 -8 14 -13 7 -10 -6 4 -14 3 -17 -2 -3 -4
16 -9 42 -9 69 -2 117 -26 131 -64 6 -18 9 -34 7 -36 -2 -2 -32 5 -66 17 -34
12 -64 19 -67 16 -2 -2 5 -7 16 -11 12 -3 18 -11 15 -17 -4 -6 -2 -8 4 -4 6 3
13 2 17 -4 3 -5 17 -10 31 -10 14 0 22 -4 19 -10 -3 -6 -1 -10 5 -10 15 0 41
-26 34 -33 -9 -8 28 -67 38 -61 4 3 7 -5 5 -17 -1 -17 10 -28 53 -51 39 -22
59 -27 70 -20 20 12 61 -14 53 -34 -3 -9 2 -14 13 -15 76 -4 102 -4 124 2 14
3 37 0 53 -8 23 -12 26 -17 16 -29 -17 -20 -4 -29 25 -16 20 9 33 6 75 -16 28
-15 51 -30 51 -33 0 -3 -24 -4 -52 -1 -60 5 -60 -7 -1 -15 61 -8 57 -18 -7
-17 -32 1 -64 -3 -72 -7 -8 -6 3 -9 32 -9 54 -1 31 -14 -43 -24 -65 -9 -108
-28 -47 -21 25 3 63 10 85 15 52 12 58 12 49 -2 -4 -6 -3 -8 2 -5 10 6 183 -6
221 -16 28 -7 86 -37 81 -42 -2 -3 -26 2 -53 10 -54 17 -95 19 -95 7 0 -5 6
-9 13 -10 53 -7 78 -16 73 -28 -3 -8 6 -15 25 -19 54 -12 30 -21 -55 -21 -46
1 -79 -2 -73 -6 7 -5 0 -8 -15 -8 -25 0 -33 9 -29 33 3 18 -51 5 -71 -18 -21
-24 -56 -36 -43 -15 12 19 -35 10 -55 -10 -13 -13 -31 -20 -47 -18 -21 2 -30
-3 -41 -25 -12 -25 -12 -31 2 -46 9 -10 16 -22 16 -28 0 -15 44 -53 62 -53 9
0 19 7 22 15 4 12 14 14 43 9 50 -9 56 -13 43 -29 -7 -9 -7 -15 -1 -19 22 -14
98 -37 136 -42 l40 -5 -39 18 -38 18 25 14 c21 11 28 11 48 -1 29 -18 98 -16
154 4 27 10 44 25 55 47 15 31 15 32 90 31 101 0 98 0 155 -5 28 -2 71 -5 97
-5 30 -1 72 -12 112 -30 35 -16 108 -44 163 -62 89 -29 95 -32 68 -40 -16 -4
-43 -5 -60 -2 -69 13 -134 9 -188 -11 -12 -5 -16 -3 -12 7 13 32 -113 108
-146 88 -7 -5 -16 -7 -20 -4 -4 2 -17 -12 -28 -32 -20 -33 -22 -34 -38 -19 -9
10 -24 14 -37 11 -12 -3 -27 -6 -33 -6 -7 0 -13 -7 -13 -15 0 -19 -24 -19 -40
-1 -6 8 -18 12 -26 9 -8 -3 -13 -8 -10 -11 3 -3 -4 -13 -16 -23 l-21 -19 24
-1 c13 -1 28 -1 33 0 5 1 3 -5 -5 -15 -12 -15 -11 -18 6 -30 11 -7 29 -20 40
-28 19 -15 18 -15 -16 -16 -24 0 -39 5 -43 15 -3 8 -15 15 -27 15 -12 0 -20 3
-16 6 10 11 -56 64 -80 64 -24 0 -32 -23 -13 -35 8 -5 7 -12 -2 -23 -7 -9 -8
-13 -2 -9 6 4 22 -3 36 -16 16 -15 38 -23 71 -24 26 -1 60 -9 76 -18 17 -8 38
-15 48 -15 28 0 68 -31 53 -40 -15 -9 -68 6 -91 26 -21 19 -28 17 -22 -5 3
-11 20 -23 42 -30 43 -12 128 -17 138 -8 3 4 -4 7 -16 7 -14 0 -21 5 -18 13 5
13 40 11 45 -4 2 -5 8 -9 13 -9 6 0 8 4 5 9 -3 5 12 11 34 14 22 3 61 18 87
34 38 24 49 36 51 60 3 26 8 32 35 37 33 6 116 7 177 3 19 -2 53 3 75 11 42
14 111 11 157 -7 15 -6 58 -15 95 -21 38 -7 82 -16 100 -21 17 -6 50 -11 72
-13 50 -4 67 -16 23 -16 -43 0 -90 -19 -73 -29 7 -5 -20 -10 -63 -14 -42 -3
-90 -13 -108 -21 -22 -12 -34 -13 -39 -5 -4 7 -13 5 -25 -8 -11 -11 -36 -20
-56 -22 -31 -2 -44 3 -74 33 -21 20 -43 36 -51 36 -18 0 -18 0 -55 10 -58 17
-148 -25 -107 -50 7 -5 17 -6 21 -4 12 8 9 -8 -7 -36 -20 -34 -19 -39 8 -33
18 4 19 3 7 -6 -12 -9 -13 -13 -2 -20 9 -5 -1 -10 -30 -14 -24 -4 -53 -10 -65
-13 -17 -5 -23 -2 -23 9 0 23 -30 37 -56 27 -12 -5 -24 -8 -25 -6 -2 1 -12 -6
-21 -16 -14 -14 -15 -18 -4 -18 8 0 17 -7 20 -16 3 -8 10 -12 16 -9 5 3 10 2
10 -3 0 -8 73 -27 92 -24 6 2 75 -21 108 -35 32 -13 61 -13 90 2 16 9 30 20
30 25 0 6 9 10 20 10 11 0 20 -1 20 -3 0 -1 -4 -17 -9 -35 -5 -17 -7 -32 -3
-32 12 1 59 74 66 102 3 15 13 34 22 42 8 9 13 20 10 25 -3 5 18 12 46 16 29
4 65 16 80 27 18 12 49 20 95 23 37 2 79 6 93 9 14 3 35 8 47 10 12 3 32 10
44 17 21 11 191 8 297 -6 31 -4 97 -44 76 -46 -5 0 -18 -2 -29 -4 -11 -2 -40
-7 -65 -11 -55 -9 -48 -7 -90 -21 -69 -23 -319 -37 -383 -21 -21 5 -29 2 -37
-12 -14 -26 -13 -30 10 -30 28 0 15 -25 -21 -40 -32 -14 -37 -31 -14 -50 11
-9 14 -22 10 -42 -6 -23 -3 -30 16 -36 32 -12 79 -5 102 16 19 16 20 16 8 -5
-14 -28 -14 -33 2 -33 6 0 25 14 41 30 22 23 26 33 18 43 -9 11 -5 20 16 40
16 15 31 24 35 20 4 -3 7 3 7 15 0 12 5 22 10 22 6 0 9 5 8 11 -2 6 5 13 15
14 10 2 51 9 90 15 40 6 86 16 102 21 17 6 53 13 82 16 48 5 53 3 63 -19 12
-25 82 -55 88 -37 4 11 22 2 22 -12 0 -5 -15 -9 -33 -9 -19 0 -37 -3 -40 -6
-4 -4 -28 -8 -54 -10 -54 -5 -172 -33 -189 -46 -6 -5 -19 -6 -28 -2 -10 4 -16
1 -16 -7 1 -18 35 -59 49 -59 6 0 11 -6 11 -13 0 -23 42 -35 110 -32 48 1 67
6 79 21 9 10 33 27 54 36 20 10 36 23 35 30 -2 8 9 13 29 14 18 1 55 10 83 19
27 9 54 14 59 11 5 -4 14 1 18 9 10 18 33 24 118 32 85 8 61 -10 -50 -38 -49
-12 -97 -24 -105 -27 -28 -10 44 -18 89 -10 24 4 46 6 48 4 2 -2 -20 -18 -49
-36 -71 -43 -161 -111 -155 -117 3 -2 40 21 83 52 113 80 164 101 299 125 113
20 150 30 111 30 -12 0 -16 5 -13 15 9 21 -4 25 -46 15 -35 -7 -50 1 -27 15 6
4 8 10 5 15 -2 4 6 10 20 12 24 5 56 -14 66 -37 13 -33 56 -95 65 -95 5 0 20
-9 32 -20 12 -11 25 -20 30 -20 5 0 21 -9 36 -21 14 -11 30 -17 36 -14 5 3 10
2 10 -4 0 -6 7 -8 15 -5 8 4 17 -1 21 -9 3 -10 16 -14 39 -12 19 2 51 -2 71
-8 33 -10 38 -9 56 13 18 23 18 24 1 34 -23 13 -51 46 -59 71 -4 11 -16 29
-28 41 -36 35 -72 79 -79 97 -3 9 -14 17 -23 17 -9 0 -39 12 -68 26 -63 32
-94 38 -112 23 -11 -9 -21 -9 -42 0 -24 11 -25 14 -9 22 10 6 25 9 35 8 9 -2
30 0 45 4 19 5 34 3 44 -4 11 -10 16 -10 22 -1 13 22 115 26 165 7 40 -16 95
-68 96 -92 1 -11 101 -90 140 -109 19 -10 29 -21 26 -30 -3 -8 -1 -14 4 -14 6
0 10 6 10 14 0 12 4 12 30 0 16 -9 34 -13 40 -9 6 3 13 -1 16 -10 5 -12 9 -14
14 -4 5 8 31 12 71 11 35 0 71 4 81 9 12 7 18 6 18 -1 0 -18 26 12 32 38 3 12
2 23 -3 23 -5 1 -13 2 -19 3 -5 0 -41 30 -81 66 -39 36 -83 75 -96 87 -14 12
-31 19 -39 16 -8 -3 -14 -1 -14 4 0 15 -56 19 -135 9 -110 -14 -119 -14 -142
1 -33 22 -29 30 25 42 85 19 198 4 332 -43 112 -40 278 -87 312 -89 21 -1 38
-6 38 -11 0 -4 7 -5 16 -2 10 4 13 2 8 -6 -5 -8 -2 -9 9 -5 9 3 19 2 22 -2 3
-5 15 -7 26 -4 17 5 10 11 -37 29 -31 13 -63 24 -71 24 -27 0 -12 18 20 23 17
3 43 7 56 11 29 7 111 -31 111 -51 0 -7 5 -13 11 -13 6 0 9 6 6 13 -4 10 1 13
17 10 18 -4 22 -10 19 -31 -3 -15 2 -35 9 -46 13 -16 14 -14 10 19 l-4 37 28
-15 c45 -23 79 -64 66 -79 -7 -9 -6 -17 4 -26 11 -10 15 -8 20 13 8 33 14 32
57 -10 29 -29 38 -48 53 -112 18 -87 32 -121 35 -88 2 25 2 21 -6 74 -9 64
-36 111 -90 156 -25 22 -67 60 -93 85 -26 24 -56 45 -67 46 -11 1 -27 4 -35 7
-27 10 -75 20 -83 18 -5 -1 -6 2 -3 7 7 11 106 5 121 -8 5 -5 33 -14 60 -21
28 -6 64 -24 80 -39 17 -15 40 -31 53 -35 12 -3 22 -13 22 -20 0 -20 21 -30
30 -14 5 7 6 17 4 21 -3 4 -1 8 4 8 5 0 15 -18 22 -40 7 -22 17 -40 22 -40 12
0 10 15 -11 70 l-19 51 96 -6 c53 -4 115 -11 136 -17 22 -5 85 -11 141 -13 56
-2 106 -5 111 -6 5 -1 17 1 26 5 10 5 31 3 48 -2 30 -11 36 -7 22 15 -10 15
-117 42 -197 49 -33 3 -82 9 -108 14 -26 6 -62 10 -80 10 -22 0 -28 3 -18 9 7
5 10 14 7 20 -10 16 -36 14 -36 -3 0 -8 -14 -15 -35 -18 -43 -5 -47 8 -5 17
31 7 38 19 19 30 -5 4 -18 0 -27 -8 -20 -18 -118 -35 -108 -19 3 6 20 13 37
17 l30 7 -20 31 c-23 37 -42 37 -84 1 -28 -24 -59 -28 -107 -15 -21 6 -22 8
-7 14 9 3 17 13 17 21 0 8 17 20 38 26 20 7 84 32 141 57 90 39 114 45 175 46
73 0 89 -2 211 -28 39 -8 93 -17 120 -21 28 -3 55 -10 60 -15 6 -4 26 -11 45
-14 75 -12 90 -17 90 -31 0 -8 5 -14 10 -14 6 0 10 -7 10 -16 0 -15 67 -50 78
-40 3 3 11 1 19 -5 7 -6 13 -9 13 -6 0 3 21 -2 48 -10 26 -8 62 -16 80 -18 26
-4 32 -2 32 14 0 11 9 22 19 26 13 4 17 12 14 26 -5 19 -2 20 51 16 31 -2 59
0 62 4 9 15 -44 59 -70 59 -14 0 -29 -7 -34 -15 -5 -10 -15 -13 -25 -9 -22 8
-22 24 -1 24 11 0 14 5 10 16 -3 9 -6 25 -6 35 0 11 -4 17 -10 14 -5 -3 -18
-2 -27 3 -10 6 -36 12 -58 15 -22 3 -41 10 -43 15 -5 15 -67 -3 -93 -26 -12
-12 -26 -19 -31 -16 -4 3 -8 1 -8 -3 0 -11 -111 -13 -125 -3 -5 4 -32 11 -60
14 -27 4 -66 10 -85 12 -19 3 -44 7 -55 9 -40 9 -121 25 -152 30 -18 3 -33 9
-33 13 0 10 123 77 134 74 4 -2 24 13 43 33 l35 36 147 -1 c80 -1 162 -3 181
-3 19 -1 44 2 55 7 36 14 174 14 213 0 20 -7 70 -13 110 -14 64 0 72 -2 72
-19 0 -18 5 -20 87 -37 26 -5 22 15 -7 39 -16 14 -30 27 -30 30 0 2 24 3 53 4
45 0 52 3 55 21 2 11 -6 30 -17 41 -12 12 -21 22 -21 24 0 4 94 14 148 16 28
1 32 4 32 30 0 16 -6 33 -12 38 -15 11 -65 8 -81 -5 -33 -28 -87 -9 -87 29 0
11 -4 19 -9 19 -5 0 -11 9 -14 20 -6 24 -34 26 -83 5 -20 -8 -40 -13 -44 -10
-5 3 -6 -8 -4 -23 5 -34 -14 -56 -36 -42 -13 8 -13 13 2 38 13 22 14 32 6 40
-30 30 -75 -4 -98 -74 -6 -19 -16 -32 -21 -28 -5 3 -13 -6 -19 -20 -10 -28
-20 -32 -37 -15 -15 15 -47 3 -40 -16 4 -9 -2 -16 -16 -20 -12 -3 -31 -10 -42
-15 -77 -32 -179 -35 -319 -11 -32 6 -63 8 -67 5 -5 -3 -9 -3 -9 0 0 3 22 17
48 30 44 22 142 111 142 129 0 4 6 7 13 7 7 0 48 34 91 75 43 41 83 75 88 75
6 0 8 6 5 14 -7 18 13 36 49 42 15 3 40 14 55 25 27 19 139 62 139 54 0 -3 11
0 25 5 45 17 139 29 152 19 13 -12 88 -22 158 -23 28 0 56 -6 63 -13 14 -13
80 -29 88 -20 14 13 -10 58 -35 64 -26 7 -26 7 9 16 19 4 47 10 61 12 38 4
139 35 170 51 25 13 27 16 17 48 -13 40 -42 49 -93 30 -16 -6 -47 -15 -69 -18
-33 -6 -38 -5 -32 9 6 16 -22 70 -32 60 -3 -3 -13 2 -23 11 -17 15 -20 15 -48
-7 -16 -13 -31 -32 -34 -41 -7 -25 -31 -23 -24 2 7 29 -20 31 -75 7 -34 -16
-65 -51 -60 -69 1 -5 -2 -8 -8 -8 -5 0 -10 5 -10 12 0 6 -10 2 -22 -10 -23
-21 -26 -22 -51 -22 -7 0 -22 -8 -33 -17 -24 -22 -35 -25 -96 -27 -49 -2 -58
3 -35 23 8 6 15 35 16 68 3 76 3 75 28 98 13 11 25 34 27 50 6 42 25 94 52
136 13 20 21 39 18 42 -7 7 158 157 173 157 6 0 15 9 18 20 7 22 31 27 37 8 4
-11 81 -14 99 -2 16 9 10 34 -8 35 -15 0 -15 2 2 9 32 14 41 11 53 -15 9 -19
9 -25 0 -25 -6 0 -8 -3 -4 -8 4 -4 18 -7 29 -7 15 0 22 -6 22 -20 0 -18 7 -20
60 -20 l60 0 0 35 c0 19 -2 40 -5 45 -13 28 -8 43 18 48 15 3 38 16 52 29 13
13 26 22 27 20 2 -1 17 5 33 13 36 18 38 38 8 53 -13 7 -34 21 -48 32 l-25 20
-53 -25 c-28 -14 -60 -25 -70 -25 -10 0 -23 -5 -29 -11 -8 -8 -13 -8 -17 0
-19 29 -82 -14 -73 -50 7 -27 -1 -49 -18 -49 -23 0 -28 21 -9 34 9 7 14 18 11
23 -8 13 -57 23 -57 12 0 -5 -7 -9 -16 -9 -9 0 -12 5 -8 12 4 7 3 8 -4 4 -7
-4 -12 -12 -12 -17 0 -5 -11 -22 -25 -36 -18 -20 -21 -30 -13 -40 11 -14 6
-16 -27 -14 -11 1 -36 -12 -55 -29 -18 -16 -37 -30 -42 -30 -11 0 -10 37 1 58
5 9 11 35 15 57 3 22 15 68 26 103 27 86 32 110 30 160 0 23 4 69 11 102 9 49
18 65 42 82 17 12 41 22 55 23 13 0 30 8 36 17 11 15 14 15 27 2 16 -15 78
-22 97 -10 6 3 11 14 10 24 0 31 13 77 27 92 12 14 19 46 16 78 -1 16 -31 12
-50 -7 -13 -11 -16 -11 -21 5 -6 17 -8 17 -19 -4 -6 -12 -17 -22 -24 -22 -7 0
-21 -16 -31 -35 -27 -50 -42 -61 -62 -44 -13 10 -17 10 -24 -1 -5 -8 -7 -17
-4 -22 5 -8 -35 -32 -42 -26 -2 3 3 31 11 63 9 32 13 60 11 62 -11 12 44 121
67 131 4 2 7 10 7 17 0 18 27 28 85 30 28 1 63 8 79 14 16 6 31 9 34 7 2 -3
13 6 24 19 11 14 26 25 33 25 8 0 16 8 20 18 3 11 17 24 31 31 14 6 22 16 19
21 -3 6 -1 10 4 10 6 0 11 6 11 14 0 7 9 16 21 19 12 3 19 11 16 19 -5 14 17
63 38 88 17 19 16 30 -8 55 -17 18 -19 19 -28 3 -8 -15 -47 -29 -89 -33 -15
-2 -97 -36 -132 -55 -10 -6 -24 -10 -31 -10 -7 0 -20 -13 -29 -28 -10 -16 -34
-46 -55 -68 -37 -38 -45 -58 -31 -79 3 -6 -2 -20 -12 -33 -21 -26 -35 -14 -24
21 4 12 8 34 9 48 1 14 11 35 23 47 13 13 21 26 19 30 -4 7 28 41 41 43 20 4
31 12 26 20 -3 5 0 9 6 9 19 0 42 29 44 55 0 14 7 25 14 25 12 0 14 3 16 42 1
15 17 33 51 55 67 43 144 119 151 149 3 13 12 24 20 24 8 0 14 5 14 11 0 5 -4
7 -10 4 -5 -3 -3 13 6 37 8 24 17 61 20 83 3 22 7 45 9 51 5 16 -7 30 -32 38
-17 6 -23 3 -23 -8 0 -9 -4 -16 -9 -16 -5 0 -17 -7 -25 -16 -9 -8 -29 -19 -45
-24 -26 -7 -32 -4 -64 35 l-36 42 27 39 c15 21 30 41 35 42 4 2 7 12 7 22 0
10 7 20 15 24 8 3 15 1 15 -3 0 -5 -6 -11 -12 -13 -18 -6 14 -37 42 -41 12 -2
27 -14 33 -27 9 -18 21 -24 45 -25 17 0 33 3 33 7 1 4 2 13 3 18 0 6 6 14 12
18 14 8 33 72 27 90 -3 6 -15 12 -27 12 -16 0 -25 9 -35 35 -14 39 -12 51 6
47 17 -4 16 24 -1 92 -19 73 -40 108 -31 52 6 -33 4 -38 -10 -32 -9 3 -21 6
-26 6 -5 0 -9 13 -9 28 0 43 -25 86 -76 130 -37 32 -51 38 -79 35 -36 -4 -58
18 -85 85 -7 18 -21 37 -32 43 -10 5 -16 14 -13 19 3 5 -15 46 -41 91 -25 45
-48 94 -50 108 -17 114 -25 156 -42 229 l-19 83 24 -22 c12 -13 23 -26 23 -31
0 -23 45 -100 81 -137 37 -38 39 -44 24 -54 -15 -12 -20 -49 -16 -114 2 -37
44 -73 84 -73 l36 0 -4 -47 c-3 -36 1 -54 15 -73 15 -19 20 -21 20 -9 0 9 -7
22 -15 29 -17 14 -20 40 -5 40 6 0 13 -6 16 -14 3 -8 13 -13 22 -11 12 1 18
-7 22 -33 5 -32 8 -35 38 -36 35 -1 37 1 22 24 -7 11 -5 17 8 21 9 3 17 14 18
25 3 70 3 71 19 49 15 -19 15 -74 1 -162 -4 -20 0 -35 9 -43 12 -10 19 -6 38
16 28 32 27 74 -3 133 -19 36 -30 85 -35 155 -2 31 -1 36 10 25 20 -22 36 -80
26 -93 -6 -7 -6 -17 -2 -24 5 -9 11 -5 19 12 9 19 8 35 -4 68 -16 49 -67 120
-57 81 3 -13 1 -23 -5 -23 -14 0 -23 27 -15 47 5 12 2 15 -10 10 -9 -3 -17 -2
-17 4 0 18 -34 46 -89 74 -46 23 -58 25 -79 16 -21 -10 -28 -9 -49 11 -22 20
-77 104 -78 118 -1 15 -30 54 -69 94 -37 37 -49 59 -71 133 -15 48 -35 106
-44 128 -41 90 -73 199 -45 150 17 -30 42 -54 57 -55 5 0 5 5 2 10 -3 6 -1 10
5 10 6 0 14 -9 18 -19 12 -33 84 -112 111 -123 15 -6 21 -12 13 -15 -17 -6 -5
-23 17 -23 22 0 64 -56 62 -84 -8 -121 8 -180 59 -216 38 -27 64 -21 51 13 -9
22 -7 23 25 22 19 -1 37 2 40 6 3 5 1 9 -4 9 -6 0 -13 8 -17 18 -5 14 -4 15 6
5 18 -18 29 -16 22 5 -4 9 14 -5 39 -33 39 -42 44 -52 33 -65 -15 -18 -9 -38
17 -63 29 -28 55 -29 60 -3 5 25 -20 117 -34 127 -5 3 -8 10 -7 15 1 5 0 11
-1 14 -4 10 -10 46 -14 76 -5 44 -25 70 -70 91 -46 21 -59 43 -24 43 20 0 62
18 48 21 -44 8 -108 8 -136 -1 -27 -9 -38 -9 -49 0 -11 9 -15 9 -15 1 0 -20
-15 -11 -39 25 -14 19 -42 44 -63 55 -24 12 -51 39 -69 67 -16 26 -57 73 -90
105 -34 31 -71 73 -84 91 -32 47 -109 207 -140 291 l-26 70 31 -34 c16 -18 30
-37 30 -41 0 -4 36 -45 80 -90 44 -45 95 -101 112 -124 18 -22 43 -52 55 -65
13 -13 26 -36 30 -50 3 -14 14 -33 23 -43 9 -10 27 -38 39 -63 15 -30 29 -45
42 -45 16 0 18 5 13 25 -7 30 1 31 41 7 37 -23 55 -18 55 14 0 17 6 24 19 24
48 0 47 58 -3 98 -25 19 -37 40 -15 26 7 -4 10 1 7 12 -2 11 -10 19 -18 19 -8
0 -21 4 -28 8 -16 10 -54 -1 -47 -14 9 -14 -39 -11 -60 5 -11 8 -33 12 -50 9
-27 -4 -36 3 -80 54 -27 32 -68 76 -90 98 -23 22 -51 54 -63 72 -22 30 -22 34
-7 57 13 19 14 29 5 46 -6 11 -8 25 -5 30 7 12 54 -20 55 -36 0 -7 7 -14 15
-18 8 -3 15 -12 15 -19 0 -8 28 -39 61 -68 34 -30 70 -63 80 -73 21 -22 22
-21 42 59 11 42 10 56 -3 87 -10 26 -21 38 -35 38 -17 0 -18 2 -5 10 25 17
-32 58 -72 51 -5 0 -8 3 -8 8 0 9 -51 33 -66 30 -20 -3 -35 2 -30 10 6 9 -72
91 -86 91 -5 0 -8 6 -8 14 0 8 -6 16 -12 19 -7 2 -10 8 -5 12 4 5 18 -2 32
-15 42 -40 26 5 -27 73 -16 20 -27 37 -24 37 3 0 27 -11 54 -24 88 -44 173
-78 180 -71 5 4 -99 55 -123 59 -5 1 -35 15 -65 30 -50 26 -160 128 -160 149
0 4 -16 15 -35 23 -19 8 -35 17 -35 20 0 3 5 2 10 -1 6 -3 10 -1 10 4 0 6 -13
11 -30 11 -24 0 -28 -3 -23 -17 4 -10 17 -29 30 -43 26 -28 32 -50 7 -25 -12
12 -20 13 -29 5 -17 -14 -39 22 -32 51 3 10 2 19 -1 20 -4 0 -15 2 -24 4 -10
2 -21 -3 -25 -10 -10 -17 -16 -12 -98 74 -56 58 -58 62 -30 55 17 -4 35 -13
40 -19 6 -7 23 -16 40 -20 16 -3 33 -12 37 -18 4 -6 10 -8 15 -4 4 4 2 16 -4
26 -10 16 -9 19 10 18 12 0 29 2 37 4 8 2 15 -3 15 -11 0 -8 6 -29 13 -46 10
-24 19 -31 43 -32 16 0 42 -7 58 -15 24 -12 32 -12 55 0 18 10 26 20 22 30 -5
11 -2 14 11 9 9 -4 20 -1 24 6 7 11 12 11 29 0 16 -10 24 -10 40 0 11 7 20 16
20 20 0 5 9 8 19 8 11 0 23 4 26 10 11 18 14 50 4 50 -22 0 -6 17 24 25 17 6
32 17 32 25 0 16 -3 17 -64 19 -24 1 -39 6 -38 14 1 33 -5 45 -25 51 -56 16
-107 17 -159 2 -55 -16 -134 -70 -124 -86 3 -4 -2 -13 -10 -20 -16 -13 -68 -7
-110 12 l-24 11 36 36 c33 34 34 36 13 39 -32 5 -74 -15 -85 -41 -9 -20 -17
-22 -74 -21 -62 1 -66 2 -101 43 -20 22 -44 41 -53 41 -9 0 -14 6 -11 13 4 13
-22 45 -38 46 -5 1 -9 4 -10 9 -4 15 -47 42 -67 42 -13 0 -18 5 -15 13 5 14
-95 87 -119 87 -14 0 -122 98 -116 104 2 3 29 -2 59 -10 30 -8 71 -14 91 -14
42 0 114 -29 146 -59 26 -24 68 -29 60 -7 -4 9 1 16 11 18 22 5 63 -14 58 -27
-2 -5 1 -18 6 -28 8 -16 10 -16 30 3 15 14 25 17 34 9 8 -7 14 -7 19 1 7 12
57 2 66 -13 4 -6 23 -7 45 -3 22 4 44 8 51 8 7 1 10 5 7 10 -3 5 -9 6 -14 3
-5 -3 -8 4 -7 15 1 13 8 20 23 20 59 0 109 41 69 56 -10 4 -13 13 -9 26 4 12
1 24 -7 29 -8 5 -12 23 -11 48 2 23 -2 41 -8 41 -5 0 -10 -4 -10 -9 0 -5 -17
-11 -37 -15 -21 -3 -51 -12 -66 -20 -15 -9 -25 -11 -22 -6 7 12 -77 13 -90 2
-6 -5 -23 -14 -40 -21 -24 -10 -28 -10 -17 0 45 46 -51 23 -106 -26 -21 -18
-37 -20 -140 -20 -64 -1 -135 3 -157 9 -34 8 -86 36 -105 56 -3 3 -24 14 -48
24 -24 11 -58 33 -77 50 -19 17 -42 38 -52 46 -16 14 -13 15 40 18 32 2 55 7
53 11 -3 5 15 19 40 32 34 17 47 20 53 11 19 -30 211 -13 211 19 0 6 -9 5 -21
-1 -11 -6 -28 -9 -37 -7 -13 3 -10 7 13 17 17 8 35 14 40 14 6 1 21 11 35 24
14 13 42 32 63 43 29 15 37 24 32 39 -4 12 2 27 14 39 12 12 21 23 21 25 0 11
-116 0 -125 -12 -8 -9 -10 -3 -9 23 1 19 -2 35 -6 35 -20 0 -67 -23 -87 -42
-13 -12 -26 -19 -29 -15 -8 8 -104 -84 -98 -94 2 -4 -3 -9 -11 -13 -14 -5 -19
4 -16 31 1 6 -3 14 -8 18 -6 3 -7 13 -4 22 14 35 -55 -30 -76 -73 -12 -24 -27
-44 -32 -44 -6 0 -8 -4 -4 -10 7 -12 -30 -50 -50 -51 -28 -3 -33 -4 -41 -11
-8 -8 -39 12 -132 85 -41 32 -59 53 -52 57 9 6 9 9 1 15 -7 4 -18 2 -25 -4 -9
-7 -19 -6 -34 5 -12 8 -26 13 -32 9 -19 -11 3 -36 51 -56 64 -28 74 -41 49
-64 -19 -17 -25 -17 -73 -6 -70 18 -206 87 -229 117 -11 14 -42 30 -74 40 -30
8 -54 17 -54 18 0 2 29 3 65 3 36 0 65 -4 65 -8 0 -5 -4 -9 -10 -9 -5 0 -10
-4 -10 -9 0 -5 9 -7 19 -4 13 3 60 -20 136 -67 107 -66 155 -90 155 -77 0 5
-140 90 -192 116 -23 12 -25 16 -13 28 16 16 10 39 -13 48 -13 5 -12 8 7 21
21 15 23 15 36 -2 9 -11 14 -14 15 -6 0 7 13 12 29 12 36 0 44 18 19 44 -10
11 -18 28 -18 38 0 11 -11 30 -25 43 l-24 25 -26 -25 c-25 -22 -26 -27 -15
-59 10 -31 9 -38 -7 -54 -23 -25 -42 -30 -126 -37 -76 -7 -75 -8 -86 87 -1 4
-7 5 -15 2 -7 -3 -21 3 -31 12 -13 13 -19 14 -25 5 -6 -10 -11 -9 -21 5 -8 11
-27 26 -42 34 -25 12 -29 12 -37 0 -14 -22 -12 -43 7 -70 16 -22 16 -23 -1
-17 -10 4 -20 7 -22 7 -2 0 -4 13 -4 29 0 23 -7 33 -31 45 -23 12 -36 13 -45
5 -9 -7 -20 -6 -38 6 -24 16 -26 15 -38 -4 -15 -24 -28 -27 -28 -6 0 9 -6 12
-16 8 -11 -4 -14 -13 -10 -29 4 -16 2 -24 -6 -24 -9 0 -8 -3 2 -10 23 -15 -12
-13 -73 5 -75 21 -147 24 -147 5 0 -5 7 -10 15 -10 8 0 15 -5 15 -11 0 -20 33
-38 52 -28 10 5 27 5 43 -1 14 -5 37 -12 51 -14 53 -10 83 -31 105 -74 28 -53
35 -58 49 -33 6 12 16 18 25 15 10 -4 15 0 15 15 0 17 5 20 28 17 15 -1 37 -9
48 -16 25 -15 79 -120 63 -120 -6 0 -73 15 -148 34 -75 19 -160 38 -189 42
-77 10 -224 97 -277 163 -46 58 -49 77 -17 109 12 12 22 28 21 35 0 10 -2 10
-6 0 -7 -20 -30 -15 -47 9 -11 15 -28 23 -58 25 -23 2 -49 10 -56 17 -12 12
-12 18 4 40 11 14 26 26 35 26 36 0 65 70 30 70 -23 0 -45 25 -36 40 5 8 13 6
26 -6 27 -25 35 -9 16 31 -15 32 -47 49 -47 25 0 -5 8 -10 17 -10 14 0 13 -3
-5 -20 -12 -12 -22 -33 -23 -48 0 -15 -3 -20 -6 -12 -2 8 -7 22 -10 30 -3 8
-8 24 -10 35 -6 30 -32 65 -48 65 -8 0 -15 5 -15 11 0 7 -9 9 -24 5 -20 -5
-27 -1 -38 24 -13 30 -28 40 -28 19 0 -6 5 -19 11 -31 14 -27 2 -36 -16 -12
-14 19 -14 19 -15 -1 0 -22 29 -108 47 -140 9 -16 7 -23 -13 -42 -14 -13 -31
-23 -38 -23 -22 0 -27 -28 -8 -40 13 -8 10 -9 -13 -4 l-30 7 20 -23 c27 -31
68 -50 107 -51 18 0 26 -3 18 -6 -15 -6 -30 -22 -30 -34 0 -11 126 -66 165
-72 17 -3 48 -22 73 -46 24 -23 74 -62 113 -87 38 -25 69 -47 69 -48 0 -2 -15
-1 -32 1 -18 1 -94 5 -169 7 -120 3 -140 6 -166 25 -16 12 -42 24 -58 27 -54
9 -95 25 -89 35 3 6 -8 15 -25 22 -36 13 -45 31 -28 58 10 16 9 21 -2 28 -9 6
-10 11 -2 15 24 16 -16 111 -43 100 -6 -2 -19 14 -29 36 -9 22 -24 43 -32 46
-20 8 -28 54 -29 166 -1 97 -7 121 -27 101 -11 -11 -13 -151 -3 -193 3 -14 6
-32 5 -40 0 -42 12 -90 23 -90 7 0 18 -18 25 -40 11 -36 14 -39 27 -25 18 18
34 11 34 -13 0 -9 9 -31 19 -48 l19 -32 -29 15 c-16 8 -29 21 -29 28 0 8 -5
17 -12 21 -8 5 -9 2 -5 -10 4 -9 3 -15 -1 -13 -4 2 -27 13 -52 25 -25 11 -54
34 -65 51 -11 17 -23 31 -27 31 -5 0 -8 6 -8 14 0 8 -11 24 -24 37 -21 21 -22
24 -8 35 14 10 13 13 -6 23 -12 6 -22 18 -22 26 0 18 31 20 48 3 10 -10 15
-10 21 1 14 22 2 41 -25 41 -13 0 -24 3 -23 8 3 20 -15 51 -37 61 -21 9 -26 7
-40 -15 -16 -23 -16 -26 2 -39 21 -16 21 -16 -18 -19 -21 -1 -24 1 -16 11 7 9
7 13 -2 13 -9 0 -10 3 -1 13 7 9 8 24 1 47 -5 19 -8 36 -5 38 2 3 -3 18 -11
34 -12 23 -20 28 -36 22 -12 -3 -24 -1 -28 6 -6 9 -13 9 -28 1 -37 -20 -69
-13 -105 24 -19 19 -41 35 -51 35 -9 0 -16 5 -16 10 0 12 -30 13 -46 2z m-138
-514 c4 -5 -2 -8 -14 -8 -12 0 -25 0 -29 -1 -4 0 -9 3 -10 8 -4 11 42 11 53 1z
m-379 -78 c-4 -16 -3 -31 1 -31 4 -1 36 -2 72 -4 58 -1 65 -4 63 -21 -2 -18 8
-22 72 -33 56 -9 79 -9 96 -1 15 9 24 9 32 1 6 -6 18 -11 27 -11 12 1 11 4 -4
15 -11 8 -14 15 -7 15 7 0 10 4 6 9 -15 25 70 23 127 -2 21 -10 42 -17 48 -17
13 0 13 -13 -1 -27 -8 -8 -8 -17 0 -32 14 -25 31 -28 31 -6 0 13 4 14 20 5 11
-6 20 -8 20 -5 0 4 6 3 13 -2 6 -4 55 -9 107 -10 106 -2 140 -8 140 -24 0 -7
-25 -8 -72 -4 -40 4 -87 8 -105 9 -17 2 -60 -3 -95 -11 -34 -7 -85 -15 -113
-17 -49 -4 -107 -13 -154 -22 -20 -4 -22 -7 -10 -15 12 -7 12 -9 -1 -9 -9 0
-21 5 -26 10 -7 7 -20 6 -40 -5 -16 -8 -40 -15 -54 -15 -14 0 -36 -7 -50 -15
-14 -8 -52 -28 -85 -45 -33 -17 -78 -42 -100 -55 -22 -14 -54 -25 -71 -25 -16
0 -40 -9 -52 -20 -25 -24 -32 -25 -32 -5 0 37 -81 13 -137 -41 -18 -17 -1 -33
24 -23 16 6 21 13 16 26 -3 10 -3 15 2 11 4 -4 13 -4 19 2 7 5 17 5 26 0 12
-8 10 -10 -7 -10 -13 0 -23 -4 -23 -10 0 -15 40 -12 56 5 21 21 34 19 34 -6 0
-12 -8 -23 -20 -26 -11 -3 -17 -9 -14 -14 3 -5 -6 -9 -20 -9 -14 0 -28 5 -32
11 -4 7 -21 9 -40 6 -20 -3 -45 0 -59 7 -26 13 -60 14 -267 2 -49 -3 -98 -11
-110 -18 -13 -7 -25 -13 -28 -13 -3 -1 -16 -6 -30 -12 -70 -29 -72 -24 -10 28
36 30 73 64 83 77 10 12 24 22 32 22 7 0 15 4 17 8 2 5 30 26 63 48 59 39 60
39 160 39 78 0 108 4 138 19 56 28 141 109 194 185 68 97 75 104 86 89 6 -10
7 -9 4 2 -5 16 20 50 36 50 5 0 7 -13 4 -30z m2619 -148 c-4 -21 -17 -24 -39
-8 -10 8 -15 20 -11 29 4 13 10 14 29 5 13 -6 22 -17 21 -26z m-1346 -37 c75
-9 214 -13 234 -5 11 3 38 3 60 -2 23 -4 79 -13 125 -18 108 -13 140 -19 176
-29 28 -7 22 -11 -70 -41 -74 -25 -120 -34 -175 -35 -41 -1 -86 -7 -99 -14
-23 -13 -59 -11 -93 4 -13 5 -18 3 -18 -10 0 -14 -6 -16 -37 -11 -80 13 -97
14 -119 4 -23 -11 -34 -48 -14 -48 6 0 10 -4 10 -10 0 -5 -9 -10 -21 -10 -39
0 -59 -19 -59 -55 0 -30 3 -35 24 -35 14 0 28 5 31 10 3 6 13 10 22 10 9 0 26
9 38 20 20 19 21 19 22 0 1 -10 -5 -24 -13 -31 -10 -8 -11 -15 -4 -24 19 -23
-8 -28 -31 -7 -20 20 -59 19 -59 0 0 -6 -14 -8 -35 -4 -27 5 -39 2 -54 -13
-11 -11 -32 -23 -46 -27 -14 -3 -33 -19 -42 -35 -12 -20 -24 -29 -38 -27 -22
3 -49 -40 -39 -65 5 -14 11 -14 50 -2 25 7 50 18 57 23 7 5 38 9 69 8 46 -1
60 -6 77 -25 16 -18 26 -22 50 -16 30 6 43 -6 21 -20 -15 -9 -12 -55 4 -61 14
-5 80 29 82 43 5 26 18 53 25 53 5 0 25 24 45 54 25 38 34 61 29 75 -5 17 -2
21 14 21 12 0 21 3 21 8 0 4 3 18 7 32 3 14 2 22 -2 18 -11 -11 -35 11 -35 31
1 13 3 13 16 -4 12 -16 16 -17 23 -6 5 8 7 20 4 28 -5 13 35 35 49 26 8 -4 49
19 83 47 21 18 104 45 112 37 2 -3 21 6 40 19 20 13 43 24 52 24 9 0 27 3 41
6 24 5 24 5 6 -10 -10 -8 -23 -13 -27 -10 -16 10 -9 -9 8 -21 14 -11 9 -19
-45 -72 -45 -43 -62 -67 -62 -86 0 -20 -6 -28 -24 -33 -28 -7 -37 -36 -22 -74
17 -44 25 -49 58 -39 20 5 36 5 44 -2 8 -7 17 -5 29 7 16 16 17 16 13 -7 -3
-24 -17 -28 -50 -14 -13 5 -18 2 -18 -8 0 -8 -7 -18 -16 -21 -8 -3 -13 -10 -9
-15 3 -6 -3 -14 -12 -20 -10 -5 -15 -12 -11 -16 3 -4 17 -1 30 6 22 13 28 15
46 18 5 0 20 10 33 21 l23 21 18 -23 c22 -29 23 -39 1 -31 -15 6 -16 4 -5 -9
10 -13 10 -19 -4 -32 -9 -10 -14 -19 -11 -22 9 -9 48 16 42 27 -4 5 0 9 8 9 8
0 22 11 30 24 15 23 15 24 -9 30 -14 4 -30 4 -36 0 -6 -4 -9 -1 -6 7 3 8 14
13 26 12 20 -2 37 21 26 38 -3 5 -1 9 4 9 6 0 8 9 5 21 -3 11 -11 18 -19 15
-7 -3 -18 1 -24 9 -6 8 -18 11 -26 8 -10 -4 -12 0 -8 11 3 9 14 16 24 16 11 0
22 5 25 10 3 6 14 10 23 10 9 0 27 18 40 41 22 38 23 41 6 54 -15 10 -25 8
-68 -17 -64 -38 -61 -35 -45 -54 12 -14 8 -15 -41 -12 -30 2 -56 10 -58 16 -2
7 1 12 6 12 5 0 25 13 43 30 19 16 42 30 51 30 18 0 78 53 78 69 0 11 29 23
39 17 4 -3 38 1 76 9 37 8 73 11 79 8 6 -4 42 -8 81 -9 38 -1 73 -3 76 -3 9
-1 26 -48 33 -89 5 -28 1 -39 -22 -62 -15 -15 -42 -31 -60 -35 -18 -3 -29 -11
-26 -17 4 -6 -11 -8 -42 -4 -35 4 -42 3 -24 -3 14 -5 18 -10 10 -10 -8 -1 -34
-5 -57 -10 -35 -7 -40 -6 -36 8 5 14 4 14 -12 -1 -9 -9 -15 -20 -11 -26 3 -5
57 -9 120 -8 101 1 113 -1 101 -14 -7 -8 -16 -25 -20 -38 -6 -22 -5 -22 14
-10 43 26 67 -16 46 -79 -8 -26 -25 -31 -25 -9 0 27 -20 27 -32 1 -14 -32 2
-56 25 -37 11 9 16 7 25 -12 10 -23 14 -24 46 -14 35 11 62 4 39 -10 -7 -4
-10 -28 -8 -57 4 -71 4 -72 21 -50 13 17 16 18 24 5 8 -13 11 -12 25 5 21 28
15 133 -10 151 -21 15 -13 46 9 38 10 -4 20 3 27 20 13 27 0 74 -29 109 -14
15 -13 17 6 17 11 0 23 -4 26 -8 3 -5 20 -7 38 -5 18 2 53 5 77 7 29 2 49 9
58 22 27 37 243 53 243 19 0 -8 -7 -15 -15 -15 -8 0 -22 -8 -32 -19 -10 -10
-49 -29 -88 -41 -38 -12 -71 -24 -73 -25 -1 -1 2 -14 7 -29 11 -27 34 -33 61
-16 12 7 8 11 -18 16 -26 5 -30 9 -21 20 15 19 31 18 55 -4 10 -9 29 -16 42
-14 21 3 22 1 12 -17 -6 -12 -15 -21 -20 -21 -6 0 -10 -8 -10 -17 0 -13 3 -14
12 -5 23 23 27 12 12 -35 -29 -90 -27 -106 16 -116 14 -3 39 -10 57 -15 27 -9
32 -8 36 10 5 16 2 19 -14 15 -10 -3 -17 -1 -13 4 3 5 11 9 17 9 7 0 25 19 41
41 35 50 42 111 15 135 -26 24 -24 42 7 56 23 11 24 13 9 24 -15 11 -13 14 18
19 19 4 59 5 87 2 61 -6 94 -33 130 -103 13 -24 27 -44 31 -44 5 0 0 15 -11
33 -31 50 -24 50 24 2 33 -34 51 -45 75 -45 25 0 43 -13 94 -63 34 -35 94 -83
132 -107 39 -24 74 -50 79 -58 4 -8 17 -23 27 -33 10 -10 16 -25 13 -32 -2 -7
17 -35 45 -63 27 -27 51 -56 53 -64 2 -8 8 -18 13 -22 7 -5 6 -14 -2 -26 -9
-15 -9 -22 0 -31 6 -6 7 -11 1 -11 -6 0 -9 -13 -8 -30 2 -25 -2 -30 -22 -30
-29 0 -74 -43 -50 -48 21 -5 20 -20 -1 -24 -15 -3 -15 -4 1 -20 9 -10 14 -23
11 -29 -10 -16 -12 -69 -4 -75 5 -3 4 -15 0 -27 -6 -15 -4 -25 7 -33 11 -8 12
-15 4 -31 -8 -14 -8 -20 1 -21 44 -4 71 -10 74 -19 2 -5 -7 -42 -20 -81 -13
-40 -21 -75 -17 -77 4 -2 15 24 24 58 26 94 43 124 69 123 19 -1 22 -7 21 -41
-1 -22 0 -32 3 -23 2 10 10 15 19 11 8 -3 14 0 14 7 0 6 -4 8 -10 5 -5 -3 -10
-1 -10 4 0 6 3 11 8 11 4 0 14 11 22 25 14 23 15 19 16 -61 1 -47 6 -90 12
-96 7 -7 4 -24 -10 -57 -47 -109 -46 -114 6 -36 20 30 38 55 40 55 3 0 3 -11
0 -25 -6 -34 12 -32 20 3 3 15 14 38 24 50 l19 24 1 -66 c1 -42 -3 -68 -11
-73 -19 -12 -50 -90 -43 -108 3 -9 0 -18 -9 -21 -10 -4 -12 -15 -8 -35 4 -19
1 -29 -7 -29 -7 0 -10 -6 -7 -14 6 -16 -16 -40 -26 -29 -17 16 -5 -31 14 -56
17 -24 19 -32 8 -48 -8 -13 -9 -32 -4 -59 5 -21 7 -45 6 -51 -2 -12 12 -18 34
-13 6 1 32 3 59 4 56 2 55 -1 58 115 1 40 4 68 6 62 2 -6 8 -11 13 -11 6 0 7
5 4 10 -3 6 -1 11 4 11 38 5 35 -4 26 82 -4 37 -12 70 -18 74 -6 4 -8 0 -4
-10 8 -20 -7 -31 -20 -14 -38 48 -57 187 -40 282 6 29 17 100 23 140 1 11 3
22 3 25 1 3 19 -24 42 -59 46 -73 76 -147 94 -233 10 -52 10 -68 -7 -126 -22
-79 -23 -115 -1 -54 15 43 33 56 33 23 0 -10 -12 -50 -26 -87 -24 -64 -31
-105 -37 -212 -2 -35 0 -40 10 -26 7 9 14 22 16 28 2 6 8 7 13 3 10 -10 -27
-83 -62 -121 -14 -15 -24 -29 -21 -32 2 -3 16 9 30 26 14 16 30 30 36 30 5 0
13 9 16 20 9 29 25 25 26 -7 0 -16 2 -43 3 -61 1 -18 -4 -41 -11 -52 -11 -16
-18 -18 -41 -9 -39 15 -63 19 -57 10 2 -5 -8 -17 -23 -27 -40 -26 -49 -37 -46
-57 1 -9 -1 -17 -6 -17 -10 0 -10 -49 1 -56 5 -3 9 2 9 11 0 9 5 13 10 10 6
-4 8 -11 5 -16 -4 -5 -4 -9 0 -9 3 0 10 10 15 23 l9 22 0 -23 c1 -17 -7 -26
-28 -33 -37 -13 -59 -45 -67 -98 -7 -44 0 -52 22 -23 12 15 13 15 8 0 -3 -9 2
-28 11 -41 16 -24 15 -26 -7 -33 -13 -4 -29 -7 -37 -5 -7 1 -11 -4 -9 -11 3
-7 12 -12 21 -10 8 1 19 -3 23 -9 4 -7 3 -9 -4 -5 -6 3 -14 1 -18 -5 -5 -8 -9
-8 -14 1 -5 8 -15 10 -26 6 -16 -6 -16 -8 6 -19 25 -12 41 -57 21 -57 -6 0
-11 -11 -11 -25 0 -21 5 -25 30 -25 30 0 31 -1 25 -34 -8 -40 2 -48 44 -40 27
6 30 10 24 32 -4 17 -2 23 6 18 6 -4 16 -4 22 0 6 3 -7 14 -30 25 -38 17 -55
39 -30 39 7 0 9 9 6 21 -4 16 -3 19 5 11 8 -8 16 -1 30 25 11 19 17 41 15 48
-3 6 -2 17 3 24 15 25 45 -7 46 -50 1 -21 -2 -36 -7 -33 -14 8 -10 -12 4 -24
23 -20 38 2 36 55 -1 27 1 55 5 61 4 7 7 34 8 60 0 27 4 55 9 63 6 10 9 2 9
-25 0 -22 7 -47 16 -57 16 -17 17 -16 35 19 32 61 20 173 -22 218 l-21 22 21
56 c15 40 22 90 27 185 5 113 8 147 14 171 0 3 16 -42 35 -100 19 -58 41 -125
50 -150 9 -25 19 -56 21 -70 3 -13 10 -30 16 -37 6 -7 8 -13 5 -13 -3 0 0 -15
7 -32 15 -39 14 -41 -7 -90 -10 -21 -17 -43 -16 -50 0 -7 9 5 19 27 12 27 19
33 19 20 1 -11 -10 -43 -23 -71 -13 -28 -23 -65 -21 -82 2 -25 -3 -33 -37 -52
-40 -22 -48 -41 -9 -20 37 19 22 -4 -24 -38 -53 -38 -60 -60 -11 -31 l35 20
-12 -24 c-11 -24 -62 -65 -137 -110 l-35 -22 27 -3 c19 -2 49 11 100 44 40 25
77 54 82 62 8 14 10 14 16 -2 3 -10 4 -32 2 -51 -3 -26 -8 -32 -23 -28 -12 3
-21 -1 -25 -11 -4 -9 -22 -23 -40 -31 -31 -13 -40 -29 -34 -60 1 -5 -4 -4 -11
3 -20 18 -28 15 -23 -10 2 -13 7 -41 10 -62 2 -22 10 -46 16 -53 7 -9 7 -13 0
-13 -6 0 -9 -6 -6 -14 3 -7 -2 -16 -10 -19 -25 -10 1 -60 27 -53 17 4 19 1 14
-27 -4 -18 -9 -42 -13 -54 -9 -31 13 -30 28 1 6 14 20 26 32 28 11 2 22 10 22
18 1 8 2 20 3 25 1 6 8 -3 16 -19 9 -16 13 -31 11 -34 -3 -2 6 -16 19 -30 l25
-26 -35 -36 c-47 -48 -46 -69 1 -41 38 23 56 23 29 1 -8 -7 -15 -18 -15 -25 0
-6 -11 -17 -25 -23 -34 -16 -35 -15 -35 9 0 11 -4 18 -9 14 -6 -3 -25 1 -43 9
-23 10 -27 15 -14 15 19 1 19 2 1 21 -17 18 -17 20 -2 14 18 -6 21 3 11 30 -8
20 -24 21 -24 1 0 -8 -7 -15 -15 -15 -8 0 -14 5 -12 11 1 6 -6 13 -16 14 -13
3 -16 -1 -12 -16 6 -17 2 -16 -37 6 -24 14 -51 25 -61 25 -22 0 -33 -26 -18
-44 15 -18 63 -192 59 -214 -2 -16 92 -153 124 -180 20 -16 21 -71 2 -79 -8
-3 -14 -14 -14 -24 0 -10 -4 -19 -10 -19 -5 0 -10 5 -10 10 0 14 -27 12 -33
-2 -4 -13 -47 26 -47 44 0 4 -4 8 -10 8 -5 0 -10 -7 -10 -15 0 -18 -8 -19 -41
-1 -34 17 -75 27 -82 20 -4 -4 -1 -16 5 -28 7 -11 11 -24 10 -28 -2 -10 97
-200 115 -220 9 -10 11 -18 5 -18 -6 0 -12 5 -14 12 -2 6 -10 8 -17 4 -16 -10
2 -32 32 -42 43 -13 134 -79 144 -104 29 -70 27 -67 31 -33 l3 32 45 -20 c25
-10 52 -19 61 -19 12 0 12 -2 -1 -16 -14 -14 -14 -17 -1 -30 8 -9 15 -19 15
-24 0 -5 10 -12 22 -16 33 -10 43 -25 42 -64 -3 -58 -12 -88 -36 -122 -17 -25
-24 -29 -26 -16 -2 9 2 27 8 39 9 16 9 20 0 14 -8 -5 -10 4 -5 34 5 33 2 44
-15 58 -11 10 -20 29 -20 43 0 14 -9 36 -19 49 l-18 24 -22 -22 c-11 -11 -21
-28 -21 -36 0 -8 -2 -15 -5 -15 -8 0 -48 24 -63 38 -7 6 -22 12 -32 12 -10 0
-22 4 -25 10 -3 6 -19 10 -35 10 -16 0 -32 5 -35 10 -3 5 -17 10 -30 10 -12 0
-25 6 -28 14 -3 9 -15 12 -31 9 -17 -4 -26 -1 -26 8 0 7 -3 10 -6 7 -3 -4 -21
0 -39 8 -54 22 -64 19 -56 -18 5 -22 13 -33 23 -32 10 1 14 -4 12 -11 -3 -7 0
-16 7 -21 7 -4 15 -2 17 5 3 9 7 9 17 1 8 -6 11 -18 8 -26 -3 -8 1 -14 8 -14
10 0 10 -3 1 -12 -18 -18 -15 -28 8 -28 13 0 31 -17 51 -50 17 -27 35 -50 39
-50 5 0 12 -9 15 -20 3 -11 11 -20 16 -20 6 0 31 -17 56 -37 25 -20 50 -38 57
-40 6 -1 27 -8 47 -15 33 -11 36 -15 36 -50 0 -30 -3 -38 -18 -38 -11 0 -19
-4 -19 -9 0 -4 12 -6 28 -3 15 2 24 1 20 -3 -4 -5 1 -22 11 -39 10 -17 21 -56
25 -87 4 -47 2 -59 -15 -78 -19 -20 -18 -48 1 -36 5 3 5 -8 -1 -24 -6 -16 -16
-32 -24 -35 -8 -3 -11 -13 -8 -24 2 -11 0 -22 -5 -26 -5 -3 -12 12 -15 35 -3
22 -11 47 -18 55 -7 9 -14 21 -15 28 -1 6 -9 38 -19 71 -9 33 -18 74 -20 90
-1 17 -10 55 -18 85 -13 45 -17 51 -23 33 -3 -13 -13 -23 -21 -23 -8 0 -12 -4
-8 -9 3 -5 -2 -16 -10 -24 -8 -9 -15 -20 -15 -26 0 -6 -5 -11 -11 -11 -15 0
-39 26 -39 42 0 7 -8 34 -18 61 l-18 47 -23 -24 c-16 -17 -22 -32 -18 -48 4
-13 6 -26 6 -31 0 -4 7 -20 14 -35 8 -15 11 -38 7 -52 -8 -31 9 -103 36 -148
1 -2 12 1 23 8 17 8 21 8 21 -4 0 -27 61 -78 87 -73 19 3 23 0 23 -19 0 -12 4
-25 9 -29 5 -3 12 -19 16 -35 4 -17 19 -45 33 -62 23 -26 27 -42 28 -92 0 -54
-22 -195 -25 -156 -2 28 -37 63 -64 63 -20 0 -30 8 -42 34 -21 43 -37 38 -40
-12 -1 -22 -5 -51 -9 -65 -12 -43 -14 -144 -3 -170 5 -14 11 -31 13 -38 3 -15
34 -41 49 -42 6 0 16 -4 23 -8 16 -11 -19 -84 -58 -124 -15 -15 -42 -52 -59
-83 -28 -49 -54 -75 -66 -64 -2 2 -6 28 -9 57 -3 29 -10 61 -16 71 -5 10 -7
21 -4 24 3 2 -1 20 -9 39 -12 29 -12 37 0 53 7 11 11 26 7 35 -17 41 -15 71 5
88 27 22 34 79 13 111 -9 15 -32 42 -50 61 -29 32 -34 33 -43 18 -14 -25 -54
-25 -44 -1 16 40 21 80 13 102 -8 23 -9 24 -31 5 -12 -10 -23 -20 -25 -20 -2
-1 1 -18 6 -38 9 -31 8 -36 -10 -42 -11 -3 -17 -12 -14 -20 3 -7 -4 -20 -15
-28 l-21 -14 24 -34 c12 -18 28 -36 33 -40 6 -4 19 -14 30 -23 17 -14 15 -14
-12 1 -28 16 -33 16 -47 2 -13 -14 -12 -19 10 -49 14 -19 23 -42 20 -52 -3
-13 7 -29 27 -48 58 -54 77 -74 77 -81 0 -14 -20 -8 -26 7 -4 8 -18 15 -33 15
l-26 -1 35 -29 c28 -25 31 -30 15 -30 -19 -1 -19 -1 -1 -15 10 -7 16 -20 13
-27 -2 -7 0 -23 4 -35 8 -20 6 -21 -16 -13 -37 14 -32 -11 5 -32 17 -10 30
-25 30 -36 0 -11 10 -32 22 -47 14 -19 18 -30 11 -32 -7 -3 -9 -11 -6 -20 4
-10 2 -14 -4 -10 -6 4 -14 -5 -18 -21 -3 -15 -24 -58 -46 -96 -25 -43 -37 -76
-34 -87 4 -13 1 -21 -12 -25 -35 -11 -48 -22 -45 -39 2 -9 -1 -15 -6 -12 -12
8 -44 -32 -36 -45 4 -6 1 -9 -7 -6 -15 5 -46 -23 -97 -89 -30 -38 -119 -103
-142 -103 -5 0 1 24 14 54 28 63 58 159 62 201 8 71 17 99 38 122 13 14 29 44
36 67 6 22 18 48 26 56 7 9 20 35 28 58 14 40 14 42 -5 42 -16 0 -18 5 -14 28
7 44 -8 117 -25 117 -19 0 -63 90 -65 133 -2 44 -20 61 -41 41 -17 -18 -20
-38 -10 -94 7 -40 7 -40 -11 -19 l-19 21 -27 -23 c-21 -18 -26 -29 -21 -49 5
-18 2 -25 -9 -25 -8 0 -28 -13 -45 -28 -27 -26 -29 -30 -16 -54 7 -14 25 -33
39 -42 26 -17 33 -36 14 -36 -5 0 -7 6 -3 13 5 9 4 9 -7 -1 -7 -7 -15 -27 -17
-45 -10 -103 21 -187 69 -187 10 0 21 -5 24 -10 4 -6 11 -8 16 -5 5 3 7 -7 4
-22 -2 -15 -6 -44 -9 -63 -5 -44 -77 -196 -127 -270 -20 -30 -56 -71 -79 -90
-24 -19 -49 -41 -56 -47 -7 -7 -18 -13 -24 -13 -6 0 -8 -5 -4 -12 4 -6 3 -8
-4 -4 -14 8 -64 -11 -79 -31 -7 -8 -26 -17 -44 -19 -35 -4 -62 -22 -53 -35 3
-5 1 -9 -5 -9 -5 0 -13 5 -16 10 -4 6 -11 8 -16 4 -5 -3 -7 -10 -4 -15 6 -8
-19 -13 -55 -11 -8 0 -19 -6 -23 -15 -6 -10 -17 -13 -33 -9 -14 4 -39 0 -57
-8 -39 -18 -94 -28 -168 -31 -31 -2 -66 -8 -78 -14 -11 -7 -21 -9 -21 -6 0 4
-5 3 -11 -1 -19 -11 -121 -14 -141 -3 -20 11 -20 11 1 30 11 10 23 19 26 19 3
0 24 14 47 30 26 19 48 28 60 24 10 -3 18 -1 18 5 0 5 24 17 53 26 161 50 176
53 171 40 -4 -8 3 -15 18 -17 25 -4 117 8 125 16 11 11 -10 26 -38 26 -16 0
-29 3 -29 8 1 7 81 66 121 88 20 12 79 73 79 83 0 3 13 20 28 36 16 17 29 33
30 38 1 4 9 22 17 40 l16 32 -30 -35 -31 -35 19 40 c10 22 24 59 30 81 6 23
18 45 27 48 8 3 12 10 9 16 -4 6 -11 8 -16 5 -5 -4 0 18 12 47 12 29 23 62 26
73 4 19 4 19 -7 2 -9 -13 -15 -15 -24 -8 -10 9 -22 -10 -51 -81 -21 -51 -54
-118 -72 -148 -30 -49 -33 -52 -27 -22 l7 33 -37 -15 c-20 -8 -71 -18 -114
-21 -139 -11 -272 -56 -323 -109 -18 -19 -34 -26 -64 -26 -36 0 -100 -12 -147
-26 -21 -6 -16 14 12 56 25 37 41 88 29 92 -6 2 1 16 15 31 14 16 26 40 27 55
0 15 2 35 4 44 2 9 -3 22 -11 29 -10 8 -23 3 -56 -23 -55 -43 -125 -88 -138
-88 -5 0 -10 -4 -10 -10 0 -5 -11 -10 -25 -10 -14 0 -25 -4 -25 -9 0 -4 -23
-39 -51 -77 -60 -80 -99 -158 -99 -196 0 -18 -5 -28 -15 -28 -20 0 -19 -16 1
-24 9 -4 14 -9 11 -12 -3 -3 -2 -17 3 -30 7 -19 6 -24 -5 -24 -8 0 -15 -4 -15
-10 0 -5 -16 -17 -35 -26 -19 -9 -35 -20 -35 -25 0 -5 -6 -9 -14 -9 -8 0 -16
-4 -18 -9 -1 -6 -30 -11 -62 -12 -58 -3 -96 -20 -96 -45 0 -15 -43 -37 -65
-32 -31 6 -27 24 9 38 20 7 37 19 40 27 3 7 14 13 23 13 10 0 30 12 45 27 14
16 32 33 39 39 21 17 54 58 50 63 -1 2 2 7 9 11 6 4 13 23 14 43 2 20 9 43 16
52 7 8 10 15 6 15 -3 0 -2 11 3 23 5 13 5 30 1 37 -5 8 -5 19 1 26 7 8 6 14
-1 19 -6 3 -7 12 -3 18 7 12 14 84 13 142 -1 39 -15 52 -29 26 -7 -12 -17 -21
-23 -21 -6 0 -54 -44 -107 -97 -53 -53 -90 -90 -83 -81 10 12 10 18 -2 28 -16
13 -21 2 -31 -65 -2 -16 -13 -64 -25 -105 -12 -41 -24 -110 -26 -153 -4 -78
-23 -126 -51 -127 -7 0 -13 -4 -13 -9 0 -5 -13 -9 -28 -9 -15 1 -37 -4 -48
-10 -21 -11 -150 -19 -159 -10 -3 3 20 27 52 53 68 57 92 85 93 104 0 8 6 22
14 30 8 9 16 27 18 41 2 14 7 31 12 38 4 7 5 24 2 38 -4 13 -2 24 3 24 6 0 8
10 5 22 -9 44 -9 108 1 111 6 2 5 13 -2 29 -6 14 -9 29 -6 32 4 3 7 29 7 56 1
41 -2 50 -16 50 -23 0 -50 -29 -44 -47 3 -8 2 -12 -3 -9 -5 3 -11 -1 -14 -8
-3 -8 -1 -17 6 -19 8 -3 4 -12 -11 -26 -12 -12 -27 -19 -32 -16 -17 10 -33 -5
-21 -19 8 -10 4 -21 -15 -42 -49 -56 -81 -109 -100 -169 -17 -54 -21 -73 -26
-112 -3 -30 -30 -18 -66 31 -58 77 -122 150 -141 160 -14 8 1 -12 47 -62 6 -7
25 -32 41 -56 24 -35 27 -44 16 -59 -16 -22 -32 -22 -47 3 -16 25 -27 26 -23
3 2 -10 4 -22 4 -28 1 -5 6 -3 11 5 8 12 10 11 10 -6 0 -11 5 -25 12 -32 26
-26 -1 -18 -61 19 -36 21 -74 39 -86 39 -15 0 -33 17 -60 55 -21 31 -40 54
-42 51 -2 -2 8 -27 22 -56 26 -51 26 -82 0 -47 -7 10 -16 14 -19 9 -3 -5 1
-16 10 -23 19 -16 47 -69 40 -76 -3 -3 -12 2 -21 11 -9 8 -31 23 -50 32 -19 9
-35 22 -35 30 0 23 -55 104 -67 99 -7 -2 -13 -1 -13 4 0 11 -63 77 -71 74 -3
-1 -6 8 -5 20 2 28 -11 37 -45 30 -21 -4 -33 1 -54 25 -30 34 -120 62 -120 37
0 -5 -11 -31 -24 -57 -14 -27 -23 -49 -20 -51 2 -1 27 -21 56 -45 32 -26 57
-40 67 -36 9 3 16 1 16 -5 0 -6 -3 -11 -7 -11 -5 0 -8 -16 -9 -35 0 -19 2 -33
4 -30 5 4 18 -2 90 -39 32 -17 61 -14 33 3 -7 5 -11 13 -7 19 13 21 191 -36
211 -68 3 -5 -4 -14 -17 -19 -29 -11 -67 -51 -48 -51 9 0 7 -6 -6 -21 -16 -17
-16 -22 -4 -29 24 -15 -6 -12 -47 5 -19 8 -42 15 -50 15 -8 0 -39 27 -70 60
-31 33 -58 58 -61 55 -3 -3 7 -18 21 -33 30 -32 33 -42 13 -42 -8 0 -28 17
-43 38 -47 62 -105 122 -120 122 -7 0 -19 11 -25 25 -6 14 -15 25 -20 25 -12
0 -10 -7 17 -50 39 -62 20 -47 -26 21 -22 33 -43 58 -46 56 -2 -3 3 -17 12
-31 15 -22 15 -26 2 -26 -19 0 -44 38 -68 104 -15 40 -18 43 -13 16 3 -19 7
-44 9 -55 2 -11 6 -28 10 -38 7 -17 2 -16 -43 7 -28 14 -58 36 -66 48 -14 20
-14 24 1 40 9 10 22 18 30 18 22 0 9 111 -16 131 -11 9 -18 19 -16 21 3 3 -7
10 -21 16 -24 11 -25 11 -18 -10 7 -23 6 -23 -14 -5 -11 11 -18 25 -16 32 7
17 -39 91 -65 104 -23 13 -35 3 -18 -17 10 -13 9 -14 -8 -6 -11 6 -30 9 -42 9
-20 -2 -22 1 -16 24 3 14 10 28 15 29 4 2 6 8 3 12 -3 5 -12 7 -20 4 -8 -4
-12 -10 -9 -15 3 -5 0 -9 -5 -9 -6 0 -11 9 -11 19 0 12 -9 21 -25 25 -14 4
-25 13 -25 21 0 8 -9 19 -20 25 -16 8 -22 7 -32 -10 -15 -24 -24 -25 -45 -5
-20 21 -47 15 -52 -10 -2 -11 -8 -23 -13 -26 -6 -4 -1 -10 11 -14 16 -5 20
-12 16 -26 -4 -11 -2 -19 4 -19 6 0 11 4 11 8 0 9 44 32 62 32 5 0 8 -7 4 -15
-3 -8 -2 -15 3 -15 8 0 21 -29 25 -53 0 -5 15 -20 31 -33 25 -20 28 -26 15
-34 -20 -13 -50 -13 -50 0 0 6 -9 10 -21 10 -15 0 -19 5 -15 15 7 18 -15 20
-32 3 -19 -19 -15 -26 26 -45 20 -9 51 -32 68 -50 16 -17 42 -35 56 -38 15 -4
29 -13 32 -21 7 -17 -2 -17 -33 0 -24 13 -71 10 -71 -5 0 -5 3 -9 8 -9 4 0 14
-13 23 -29 22 -38 117 -84 177 -86 59 -2 62 -3 62 -15 0 -22 160 -160 185
-160 7 0 115 -79 115 -84 0 -6 -41 4 -65 15 -11 5 -45 13 -75 18 -30 6 -82 17
-115 25 -33 8 -93 23 -133 32 -68 16 -76 21 -104 61 -16 25 -32 42 -35 39 -3
-3 4 -17 16 -32 12 -15 19 -30 15 -33 -3 -3 -12 3 -20 14 -8 11 -21 28 -29 38
-8 9 -15 22 -15 27 0 5 -17 22 -39 38 -32 24 -38 33 -36 60 2 18 -1 35 -6 38
-5 3 -9 -5 -9 -17 0 -43 -13 -9 -15 42 -4 67 -25 91 -25 28 l0 -44 -16 30
c-12 21 -17 58 -18 117 -1 89 -7 104 -26 69 -10 -20 -8 -194 4 -221 3 -8 2
-21 -3 -29 -7 -11 -13 -10 -33 3 -33 22 -54 61 -41 78 14 18 9 124 -7 143 -10
12 -10 15 0 15 10 0 10 3 0 15 -7 8 -16 15 -20 15 -4 0 -25 8 -46 17 -22 9
-47 15 -58 14 -11 -2 -16 2 -12 8 4 6 2 11 -3 11 -6 0 -11 7 -11 15 0 8 -3 15
-7 15 -5 0 -18 3 -30 6 -17 5 -23 2 -23 -10 0 -24 -13 -20 -45 14 -16 17 -34
30 -41 30 -6 0 -15 8 -19 18 -9 23 -7 27 12 27 9 0 18 6 20 13 3 6 -3 12 -12
12 -9 0 -13 5 -9 11 12 20 -17 27 -48 11 -20 -10 -26 -17 -18 -22 9 -5 9 -9 1
-14 -20 -13 -12 -28 12 -21 22 7 22 7 2 -8 -19 -16 -19 -16 12 -23 32 -6 63
-40 63 -69 0 -8 -6 -15 -12 -15 -13 -1 7 -19 50 -49 21 -15 19 -41 -4 -41 -11
0 -11 -5 -2 -25 6 -14 14 -25 17 -25 3 -1 20 -12 36 -26 l30 -25 -40 16 c-22
9 -44 20 -50 26 -5 5 -14 9 -20 9 -5 0 -2 -5 8 -11 9 -5 17 -15 17 -20 0 -6
-4 -7 -10 -4 -23 14 -7 -24 20 -48 42 -38 101 -60 143 -53 25 4 37 2 41 -9 3
-8 12 -15 21 -15 8 0 15 -4 15 -10 0 -5 16 -20 35 -32 36 -24 49 -46 16 -28
-11 5 -49 14 -85 19 -103 15 -180 49 -247 110 -51 46 -59 58 -59 90 0 20 -9
51 -20 69 -11 18 -20 45 -20 61 0 38 -20 92 -31 85 -5 -3 -9 -24 -9 -46 0 -23
-3 -38 -7 -34 -5 4 -7 11 -6 14 1 4 -4 16 -10 27 -7 11 -12 26 -11 33 1 6 2
19 3 27 1 13 5 14 21 5 16 -8 20 -8 20 4 0 8 5 16 10 18 17 5 -23 86 -49 98
-13 6 -26 8 -29 5 -3 -3 -12 9 -19 26 -7 17 -16 28 -21 25 -4 -2 -14 9 -21 26
-13 30 -15 30 -28 12 -8 -10 -16 -18 -18 -16 -14 7 -25 0 -25 -15 0 -10 -3
-14 -8 -8 -11 16 -63 19 -60 3 2 -9 -8 -12 -37 -11 -30 2 -36 0 -25 -8 11 -7
4 -8 -27 -4 -24 4 -43 3 -43 -2 1 -15 34 -48 83 -83 26 -19 55 -49 64 -68 9
-19 23 -36 31 -39 8 -3 25 -17 38 -29 12 -13 32 -24 44 -24 11 0 20 -4 20 -10
0 -5 6 -7 13 -5 7 3 32 -26 61 -69 26 -41 59 -85 72 -97 13 -12 24 -26 24 -30
0 -11 -188 77 -225 105 -16 13 -50 33 -75 46 -53 27 -80 55 -80 83 0 11 -19
39 -42 62 -37 37 -48 58 -77 151 -37 120 -37 122 -27 214 6 59 3 70 -22 117
-32 61 -146 209 -172 223 -9 5 -41 32 -71 59 -60 56 -95 78 -106 67 -5 -4 25
-39 66 -78 40 -39 79 -85 87 -103 7 -19 18 -36 23 -39 16 -10 59 -139 60 -181
1 -22 3 -56 4 -76 2 -42 -18 -71 -28 -39 -4 11 -12 20 -18 20 -7 0 -18 15 -25
33 -7 17 -18 41 -24 52 -7 11 -13 42 -14 69 -2 52 -27 118 -56 150 -10 11 -18
23 -18 26 0 4 -33 40 -74 81 -67 68 -97 107 -102 134 -1 6 -6 28 -12 50 -6 22
-11 59 -11 82 0 24 -2 47 -5 52 -3 5 -1 33 4 62 6 30 13 65 15 79 4 20 37 134
62 213 4 12 0 17 -12 17 -11 0 -15 5 -11 15 3 8 1 15 -4 15 -6 0 -10 -3 -11
-7 -1 -15 -8 -39 -23 -83 -14 -40 -15 -41 -10 -10 l5 35 -15 -25 c-9 -14 -15
-33 -16 -44 0 -10 -11 -49 -24 -86 -14 -37 -22 -71 -18 -76 4 -4 2 -4 -4 -1
-6 4 -10 21 -8 38 2 18 2 30 -1 27 -10 -9 -16 -51 -21 -133 -3 -44 -7 -89 -8
-100 -2 -11 2 -26 8 -34 10 -13 34 -106 35 -140 1 -11 -3 -11 -21 1 -20 12
-31 14 -54 9 -9 -2 46 -64 79 -88 20 -15 33 -19 37 -12 4 5 26 -20 50 -58 24
-37 52 -81 62 -96 11 -16 17 -31 14 -34 -3 -4 3 -12 13 -19 10 -8 22 -30 26
-51 5 -21 10 -42 11 -48 2 -5 6 -20 9 -32 6 -19 3 -21 -24 -19 -27 2 -60 28
-61 49 0 4 -6 7 -12 7 -17 1 -51 47 -43 59 3 5 -3 12 -14 16 -17 5 -46 35
-111 115 -11 14 -29 41 -39 60 -11 19 -24 34 -30 32 -6 -1 -14 11 -17 28 -4
16 -12 30 -18 30 -16 0 -38 50 -23 50 7 0 6 4 -3 9 -8 6 -18 7 -22 5 -12 -7
-10 10 2 22 7 7 2 19 -15 38 -14 15 -27 40 -29 54 -4 32 -26 82 -36 82 -4 0
-7 6 -7 13 0 7 -3 25 -7 40 -4 19 -2 27 6 27 8 0 6 5 -4 11 -44 25 8 338 74
444 18 28 32 51 33 52 0 1 21 -4 46 -11 38 -12 50 -12 77 0 18 7 32 17 32 22
0 5 8 12 18 14 10 3 31 27 45 53 31 55 32 59 11 51 -8 -3 -12 -2 -9 4 3 6 21
10 40 10 19 0 45 4 58 9 23 9 25 14 20 53 -3 24 -10 45 -14 46 -16 6 -9 20 11
27 17 5 20 13 17 43 -4 32 -8 37 -31 37 -34 -1 -33 11 2 29 28 14 52 53 52 81
0 26 -39 16 -62 -15 -12 -17 -28 -28 -35 -26 -7 3 -13 1 -13 -4 0 -6 -6 -10
-12 -10 -7 0 -25 -7 -40 -14 -16 -9 -30 -11 -33 -5 -4 5 -10 9 -15 9 -12 0
-90 -79 -90 -91 0 -6 -7 -6 -19 1 -17 9 -21 5 -31 -25 -6 -19 -13 -48 -15 -64
-2 -16 -11 -45 -19 -66 -9 -21 -16 -54 -16 -74 0 -24 -10 -51 -31 -81 -38 -56
-75 -136 -101 -218 -10 -35 -22 -61 -26 -58 -24 25 -42 109 -42 198 0 68 -4
98 -12 101 -10 4 -10 7 -1 14 13 9 13 30 0 51 -5 7 -4 12 2 12 15 0 14 47 -1
52 -16 6 -19 38 -3 38 7 0 16 17 20 38 5 20 9 42 11 47 1 6 5 24 8 42 3 18 11
44 16 58 6 15 8 31 4 36 -3 5 0 9 6 9 7 0 10 6 7 14 -3 8 1 17 9 20 8 3 14 0
15 -7 0 -9 2 -9 6 1 2 6 10 12 18 12 7 0 18 7 26 16 9 11 22 14 45 9 38 -7 56
11 23 24 -23 8 -23 8 -2 19 11 6 24 8 28 4 5 -4 5 1 2 11 -5 13 -1 17 20 17
23 0 24 2 12 17 -13 15 -11 16 22 9 39 -7 50 -2 42 20 -4 11 -14 13 -34 9 -18
-4 -29 -2 -29 4 0 6 1 11 3 12 1 0 25 3 52 6 52 5 63 9 52 19 -11 11 -57 13
-63 3 -9 -15 -44 -10 -44 6 0 14 -3 14 -28 1 -16 -8 -34 -22 -41 -30 -14 -16
-36 -23 -27 -8 9 14 -10 33 -27 26 -14 -5 -34 -42 -28 -52 1 -1 -4 -9 -11 -16
-22 -24 -37 -1 -27 42 5 20 9 53 9 73 0 31 -5 38 -28 48 -24 10 -27 17 -28 61
0 28 4 50 9 50 5 0 4 7 -3 15 -7 8 -10 24 -7 35 3 11 1 23 -5 26 -5 3 -8 15
-5 25 3 10 1 21 -4 24 -4 3 -6 12 -3 19 6 15 74 27 74 14 0 -5 8 -4 17 1 19
11 90 26 111 24 6 0 12 3 12 7 0 4 26 21 57 36 51 26 163 125 163 145 0 4 9 5
21 2 16 -5 20 -2 18 13 -4 29 11 64 27 64 8 0 14 -5 14 -11 0 -8 5 -8 15 1 8
7 12 17 8 23 -3 5 -2 7 3 4 16 -9 33 7 36 33 3 21 -1 25 -22 23 -42 -4 -65 -9
-77 -16 -7 -4 -24 -5 -38 -1 -15 4 -25 2 -25 -4 0 -6 -14 -10 -32 -10 -18 1
-34 -4 -35 -9 -2 -6 -13 -9 -23 -6 -11 3 -28 2 -37 -2 -10 -5 -23 -7 -29 -6
-15 2 -114 -48 -114 -57 0 -4 -12 -13 -28 -20 -37 -17 -119 -145 -113 -179 1
-7 -3 -13 -9 -13 -5 0 -10 3 -11 8 -3 21 -6 85 -7 142 -1 36 -2 77 -2 92 -1
44 55 97 108 103 45 6 196 59 221 78 7 6 34 18 59 27 45 15 69 40 38 40 -9 0
-16 -5 -16 -12 0 -6 -3 -8 -7 -5 -3 4 5 20 19 35 14 15 41 52 61 82 20 30 45
65 56 76 11 12 17 24 15 27 -3 3 2 17 11 31 l17 26 -40 0 c-23 0 -43 -4 -46
-8 -2 -4 -19 -9 -36 -10 -18 -1 -41 -7 -52 -13 -11 -6 -26 -8 -33 -5 -8 3 -17
1 -20 -5 -4 -5 -10 -7 -15 -4 -10 6 -72 -15 -88 -32 -7 -7 -22 -13 -32 -13
-22 0 -120 -91 -120 -111 0 -8 -9 -20 -20 -27 -13 -8 -20 -23 -20 -42 0 -17
-4 -30 -8 -30 -5 0 -13 -17 -18 -37 -5 -20 -14 -38 -21 -40 -17 -6 -24 28 -14
65 6 19 6 34 0 37 -10 7 -8 33 5 53 5 9 3 20 -7 29 -13 13 -12 19 3 51 10 20
16 40 14 44 -11 17 20 86 42 97 13 6 23 7 21 3 -2 -8 6 -12 24 -12 6 0 9 6 6
14 -5 12 2 13 31 9 20 -3 40 -10 43 -16 4 -5 10 -3 15 6 5 8 31 25 58 38 54
25 231 193 221 210 -7 11 61 176 83 201 18 22 9 48 -18 48 -29 0 -82 -24 -105
-46 -10 -10 -23 -19 -29 -20 -31 -3 -50 -16 -150 -105 -23 -20 -56 -49 -74
-64 -18 -16 -43 -45 -54 -65 -12 -19 -26 -38 -31 -41 -5 -4 -10 -20 -11 -36 0
-16 -11 -41 -24 -57 -25 -33 -26 -29 -11 45 15 80 20 111 23 144 2 17 4 31 5
33 0 1 1 4 2 7 1 2 13 41 28 87 25 74 32 84 67 104 68 38 137 121 150 179 12
56 17 105 18 190 2 98 8 126 45 195 10 19 22 51 26 70 4 19 27 63 51 97 24 34
44 64 44 67 0 9 73 120 86 131 6 6 14 17 18 25 8 21 -3 -122 -15 -195 -6 -32
-20 -72 -31 -88 -14 -20 -21 -43 -20 -72 2 -33 -4 -48 -24 -70 -18 -20 -22
-31 -15 -38 16 -16 14 -23 -20 -62 -33 -37 -50 -114 -26 -116 31 -3 73 4 85
13 6 6 12 7 12 3 0 -4 -8 -14 -17 -21 -17 -12 -17 -12 2 -9 11 2 23 4 27 4 4
1 3 12 -2 26 -8 22 -7 23 13 15 12 -4 21 -13 20 -19 -2 -6 8 -13 22 -17 31 -8
32 -16 3 -29 -27 -13 -34 -32 -11 -32 10 0 26 11 36 24 25 31 39 29 34 -6 -4
-25 -1 -30 21 -34 32 -6 65 9 56 25 -4 7 -3 8 4 4 7 -4 12 -11 12 -17 0 -11
29 -40 57 -56 14 -8 24 -8 31 -1 16 16 2 80 -24 109 -13 14 -24 29 -24 34 0
19 -63 105 -82 111 -13 4 -18 12 -15 25 3 12 -3 24 -19 34 -13 8 -24 11 -24 6
0 -12 -29 -23 -43 -14 -6 4 0 10 14 16 l24 10 -28 11 c-24 9 -28 15 -23 36 4
14 8 32 10 40 1 8 -1 33 -7 55 -12 49 -10 115 4 131 7 8 7 25 2 46 -10 38 -2
103 16 121 9 9 11 4 6 -22 -3 -19 -8 -39 -11 -45 -3 -6 3 -1 12 12 9 12 20 22
25 22 9 0 28 -42 49 -105 13 -42 46 -79 61 -69 5 3 9 -11 9 -30 0 -36 11 -45
65 -51 33 -3 47 8 51 41 1 16 8 30 13 32 6 2 11 15 11 28 0 27 15 32 24 8 9
-24 7 -34 -8 -34 -8 0 -16 -7 -20 -15 -3 -9 0 -15 10 -15 8 0 13 -4 9 -9 -3
-5 2 -16 10 -24 8 -9 15 -20 15 -26 0 -5 4 -12 10 -16 10 -6 6 126 -5 144 -3
6 1 11 10 11 12 0 15 6 10 19 -3 11 -1 22 4 25 14 9 2 36 -15 36 -8 0 -14 5
-14 11 0 6 -10 9 -22 7 -13 -2 -22 -9 -20 -16 2 -11 -10 -16 -30 -13 -4 0 -5
-6 -2 -14 4 -10 2 -13 -8 -10 -11 5 -14 18 -10 55 4 41 0 53 -23 85 -26 33
-30 35 -44 21 -25 -26 -13 -136 15 -136 19 0 17 -8 -11 -54 -15 -26 -26 -35
-28 -25 -2 7 -10 31 -16 52 -7 20 -11 50 -10 65 3 33 -8 71 -29 94 -14 16 -13
22 1 55 9 21 19 54 21 74 3 21 20 60 37 87 30 48 32 50 58 39 14 -6 31 -14 36
-18 6 -4 34 -10 63 -14 38 -5 52 -11 53 -23 2 -29 -2 -47 -17 -63 -8 -8 -14
-20 -14 -25 0 -5 8 0 17 11 15 19 15 19 9 -9 -4 -15 -10 -42 -13 -58 -4 -22
-8 -26 -15 -16 -7 9 -8 8 -6 -7 4 -27 32 -25 36 3 2 12 8 20 13 17 5 -4 9 8 9
24 0 17 4 31 8 31 12 0 40 62 36 82 -1 13 7 19 34 24 21 3 52 10 70 14 25 7
32 5 32 -7 0 -8 6 -13 13 -10 6 2 12 10 12 18 0 8 5 14 12 14 6 0 15 3 19 8
12 12 34 8 34 -7 0 -17 54 -19 83 -4 30 16 18 33 -43 61 -33 16 -60 32 -60 37
0 6 -11 10 -25 10 -14 0 -25 5 -25 10 0 6 -6 10 -13 10 -7 0 -21 6 -31 13 -17
12 -17 16 -2 52 9 21 14 40 11 43 -2 2 0 13 6 24 8 15 17 18 45 13 55 -8 78
-23 63 -41 -6 -8 -9 -17 -6 -20 3 -3 11 3 18 14 7 11 18 18 25 15 18 -7 29 18
13 28 -11 7 -9 9 6 10 36 1 156 36 220 64 17 7 38 16 48 19 20 7 14 26 -9 26
-8 0 -14 3 -14 8 0 4 -24 17 -52 30 -29 12 -66 30 -83 39 -16 9 -44 23 -61 31
-28 13 -32 21 -37 66 -3 28 -4 52 -3 54 2 1 17 -3 35 -9 21 -8 64 -9 120 -5
47 3 107 8 134 9 26 2 53 9 59 15 7 7 8 12 3 12 -6 0 11 11 37 25 52 27 63 30
53 14 -4 -5 -4 -21 -1 -34 l6 -24 47 16 c26 9 56 24 67 34 10 10 23 16 27 13
11 -7 116 54 123 71 3 8 1 17 -5 20 -5 4 -7 11 -4 16 6 8 -8 13 -27 10 -5 0
-8 9 -8 22 0 17 15 30 66 57 37 19 78 45 93 58 46 40 139 76 103 40 -17 -17
-15 -25 8 -31 22 -6 87 10 108 27 8 5 12 22 10 37 -4 23 0 29 21 35 25 6 34 8
89 12 13 1 21 6 18 11 -3 5 1 11 9 15 8 3 15 2 15 -3 0 -5 19 -5 43 -1 23 5
83 13 132 18 50 6 97 12 105 14 7 2 15 -4 17 -14 3 -12 -6 -18 -39 -23 -61 -9
-108 -26 -148 -52 -19 -13 -40 -23 -46 -23 -6 0 -21 -12 -35 -26 -29 -32 -134
-86 -172 -89 -15 -2 -30 -5 -34 -8 -8 -8 19 -41 37 -45 18 -4 72 -54 65 -60
-3 -3 -16 5 -29 17 -14 13 -30 20 -36 16 -6 -4 -20 1 -30 10 -12 11 -20 13
-25 5 -5 -8 -11 -6 -19 5 -14 19 -53 16 -48 -4 2 -9 -6 -11 -27 -6 -17 3 -32
2 -36 -4 -3 -6 -17 -11 -30 -11 -30 0 -44 -25 -38 -66 3 -18 0 -35 -6 -38 -12
-8 -16 -56 -5 -56 4 0 22 9 40 21 39 24 47 10 9 -15 -16 -11 -22 -22 -18 -33
4 -10 2 -14 -5 -9 -11 6 -38 -31 -29 -40 5 -6 81 37 85 48 2 4 8 8 13 8 6 0 5
-8 -1 -20 -6 -11 -7 -20 -3 -20 4 0 -2 -6 -13 -14 -17 -13 -18 -15 -2 -21 11
-4 28 1 44 14 36 28 43 26 39 -9 -2 -16 -2 -30 0 -30 2 0 23 9 47 19 46 20 78
52 78 76 0 8 5 15 10 15 6 0 10 9 10 20 0 11 -7 20 -15 20 -19 0 -19 11 0 36
14 18 14 18 10 -3 -5 -31 9 -29 31 5 11 17 12 23 3 16 -11 -9 -17 -9 -25 0 -9
10 -4 13 23 14 18 1 38 4 42 6 13 8 4 56 -13 75 -14 15 -14 19 2 42 53 78 150
142 286 189 33 11 75 29 94 41 19 11 53 22 76 25 l41 5 -40 -25 c-22 -14 -48
-26 -57 -26 -10 0 -18 -4 -18 -9 0 -12 18 -9 48 8 42 23 136 53 177 56 22 2
63 8 90 12 52 9 107 8 185 -2z m1079 -44 c7 -5 11 -13 7 -19 -3 -6 -2 -13 4
-17 5 -3 10 -1 10 5 0 17 46 4 70 -20 22 -22 40 -26 40 -10 0 11 41 -8 75 -34
19 -15 18 -15 -15 -4 -19 6 -41 16 -49 22 -11 8 -13 8 -7 -1 9 -16 10 -17 -50
6 -28 11 -62 18 -76 17 -25 -3 -30 2 -56 57 -5 10 30 9 47 -2z m156 -122 c17
-6 46 -19 65 -29 19 -10 58 -20 85 -21 28 -2 66 -9 85 -15 57 -20 106 -43 92
-44 -7 0 -10 -4 -7 -10 8 -13 -11 -13 -36 1 -15 7 -29 7 -51 0 -17 -6 -36 -7
-42 -3 -22 16 -89 18 -210 7 -52 -5 -71 -4 -78 7 -8 10 -8 9 -4 -4 3 -12 0
-18 -9 -18 -16 0 -36 79 -23 96 4 6 1 19 -7 30 -28 38 -19 43 48 28 34 -8 76
-19 92 -25z m373 -275 c1 -17 -3 -21 -18 -17 -10 3 -26 13 -35 23 -15 17 -15
18 17 17 27 -1 34 -5 36 -23z m-3910 -119 c-96 -100 -158 -153 -158 -136 0 19
222 230 242 231 4 0 -34 -43 -84 -95z m-89 8 c0 -5 -18 -23 -40 -42 -46 -39
-53 -22 -8 20 30 28 50 37 48 22z m273 -35 c-5 -20 -17 -24 -27 -8 -8 13 1 27
18 27 9 0 12 -7 9 -19z m54 -25 c-10 -10 -19 5 -10 18 6 11 8 11 12 0 2 -7 1
-15 -2 -18z m-481 -113 c-3 -5 -11 -10 -16 -10 -6 0 -7 5 -4 10 3 6 11 10 16
10 6 0 7 -4 4 -10z m83 -54 c-7 -8 -17 -11 -22 -8 -5 3 -6 0 -2 -6 4 -7 14
-12 22 -12 8 0 14 -5 14 -10 0 -21 -80 -119 -102 -125 -13 -4 -47 -19 -76 -32
-29 -14 -55 -23 -57 -21 -2 2 9 18 25 35 17 18 30 36 30 42 0 6 11 27 25 47
14 20 25 34 25 30 0 -4 18 11 40 33 26 26 50 41 66 41 21 0 23 -2 12 -14z
m130 -34 c9 -6 10 -16 3 -38 -5 -16 -12 -41 -15 -55 -6 -26 -8 -27 -63 -22
-32 2 -64 5 -72 6 -17 1 102 117 121 117 7 0 19 -4 26 -8z m-330 -37 c-12 -14
-23 -25 -25 -25 -9 0 -1 20 13 34 25 26 36 18 12 -9z m5262 -134 c0 -5 14 -14
30 -21 17 -7 36 -21 43 -30 7 -10 21 -19 32 -21 19 -4 28 -36 17 -66 -8 -24
-22 -13 -16 12 5 20 3 24 -10 19 -11 -4 -16 -18 -16 -44 0 -22 -5 -42 -11 -46
-8 -4 -9 0 -4 15 6 21 -1 26 -32 22 -28 -4 -50 35 -52 94 -1 32 -4 62 -7 66
-3 5 2 9 10 9 9 0 16 -4 16 -9z m-5267 -72 c12 -7 25 -16 28 -22 7 -10 -38
-81 -86 -133 -16 -18 -50 -63 -75 -101 -25 -39 -61 -82 -80 -97 l-35 -28 -3
23 c-2 13 3 26 12 31 9 5 16 21 16 36 0 33 17 53 38 45 12 -5 14 0 10 25 -3
21 0 33 9 37 8 2 12 9 8 15 -3 5 3 15 15 22 11 7 20 18 20 25 0 7 6 12 13 11
7 -2 11 5 9 15 -2 12 4 21 17 24 12 3 19 9 16 13 -7 11 24 70 36 70 6 0 20 -5
32 -11z m5608 -75 c13 -14 17 -23 9 -19 -13 5 -46 45 -37 45 2 0 14 -11 28
-26z m-229 -49 c-4 -32 -17 -53 -27 -43 -7 6 15 78 23 78 5 0 6 -16 4 -35z
m112 -108 c15 -37 20 -117 6 -117 -9 0 -16 26 -26 98 -8 60 0 67 20 19z m137
-20 c15 -18 30 -43 34 -57 l8 -25 -23 20 c-24 22 -65 95 -53 94 5 0 20 -15 34
-32z m-187 -87 l-3 -55 14 35 c10 27 14 31 20 19 7 -18 -39 -119 -54 -119 -5
0 -5 15 -2 32 4 18 4 55 0 83 -3 28 -1 63 4 80 l11 30 6 -25 c3 -14 5 -50 4
-80z m-249 40 c3 -5 -1 -10 -9 -10 -8 0 -18 5 -21 10 -3 6 1 10 9 10 8 0 18
-4 21 -10z m56 -57 c-12 -20 -14 -14 -5 12 4 9 9 14 11 11 3 -2 0 -13 -6 -23z
m-5535 -38 c-3 -23 -26 -43 -26 -24 0 8 5 20 12 27 15 15 17 15 14 -3z m6063
-46 c-16 -10 -23 -4 -14 10 3 6 11 8 17 5 6 -4 5 -9 -3 -15z m-104 -593 c-9
-21 -18 -36 -21 -34 -2 3 4 23 14 46 9 23 18 38 20 33 1 -4 -5 -24 -13 -45z
m356 -773 c6 -6 14 -26 19 -45 l10 -33 -38 42 c-30 34 -37 50 -36 80 3 67 5
69 21 18 8 -27 19 -55 24 -62z m169 -475 c0 -6 16 -33 35 -59 19 -27 35 -52
35 -55 0 -4 -16 -24 -35 -45 -19 -22 -35 -45 -35 -51 0 -13 -26 19 -30 37 -1
6 -7 21 -12 35 -14 35 -20 119 -8 100 5 -8 10 -25 10 -37 0 -13 5 -23 10 -23
6 0 9 -3 8 -7 -3 -15 14 -63 23 -63 12 0 11 18 -5 62 -7 20 -11 37 -7 36 17
-2 18 6 5 47 -7 25 -9 43 -4 40 6 -4 10 -11 10 -17z m-93 -134 c1 -74 0 -134
-2 -132 -2 2 -6 28 -10 58 -7 62 -11 92 -20 135 -6 27 10 75 25 75 3 0 7 -61
7 -136z m-72 68 c1 -13 16 -103 21 -125 3 -12 7 -73 10 -136 3 -62 5 -116 6
-120 3 -30 -5 -32 -22 -6 -11 17 -17 38 -14 47 3 9 -9 44 -26 77 -17 34 -26
61 -20 61 6 0 10 12 10 28 0 15 1 36 2 47 1 11 -2 38 -6 60 -8 47 10 103 28
85 6 -6 11 -14 11 -18z m102 -324 c-1 -13 -7 -29 -14 -36 -11 -11 -13 -9 -13
10 0 13 5 29 12 36 16 16 17 16 15 -10z m186 -46 l38 -39 -40 -26 c-50 -33
-54 -33 -86 -1 -14 14 -30 22 -35 19 -6 -3 -10 -1 -10 5 0 17 32 47 55 52 11
2 19 10 18 16 -5 24 24 11 60 -26z m-448 -29 c19 -9 35 -22 35 -29 0 -7 6 -15
13 -17 9 -4 8 -8 -3 -16 -13 -9 -12 -11 3 -11 13 0 17 6 15 20 -2 10 0 19 5
20 42 2 67 -2 62 -10 -3 -5 -3 -15 1 -22 5 -8 11 -6 19 5 11 16 13 15 27 -1
18 -21 30 -62 17 -62 -5 0 -15 -16 -24 -36 -9 -22 -19 -33 -26 -28 -20 12 1
-89 23 -110 12 -11 17 -24 12 -35 -3 -9 -8 -29 -9 -46 -2 -16 -4 -34 -4 -40
-1 -5 -6 -3 -11 5 -5 8 -7 22 -4 32 2 9 0 19 -6 23 -5 3 -10 22 -10 41 0 20
-6 37 -14 40 -8 3 -16 17 -19 32 -3 15 -17 41 -31 57 -14 17 -26 33 -26 36 0
4 -16 14 -35 23 -42 20 -53 36 -31 48 20 11 20 37 1 62 -14 18 -15 18 -15 2 0
-9 -4 -15 -9 -12 -8 5 -4 46 5 46 2 0 19 -8 39 -17z m330 -59 c11 -21 19 -47
17 -57 -6 -30 -62 39 -62 76 0 39 19 31 45 -19z m-6881 -139 c3 -8 1 -15 -4
-15 -6 0 -10 7 -10 15 0 8 2 15 4 15 2 0 6 -7 10 -15z m6689 -305 c4 -15 0
-20 -15 -20 -10 0 -17 4 -14 9 3 5 -1 14 -10 21 -12 10 -12 15 -2 21 15 10 34
-5 41 -31z m-9 -278 c-4 -12 -10 -22 -15 -22 -10 0 -12 21 -3 45 9 24 24 4 18
-23z m-34 -86 c-5 -5 -10 -20 -10 -33 0 -25 -14 -31 -26 -11 -10 15 -12 58 -3
52 4 -2 10 3 13 12 5 13 9 14 22 4 10 -9 12 -16 4 -24z m-287 -1186 c-6 -21
-24 -23 -30 -3 -2 6 4 13 14 16 10 3 19 5 20 6 0 0 -1 -8 -4 -19z m-5773 -82
c0 -4 -9 -8 -20 -8 -11 0 -20 4 -20 8 0 4 9 8 20 8 11 0 20 -4 20 -8z m305
-358 c3 -6 -1 -7 -9 -4 -18 7 -21 14 -7 14 6 0 13 -4 16 -10z m95 -60 c8 -5
12 -11 10 -14 -3 -2 -14 2 -24 10 -22 15 -10 19 14 4z m4290 -123 c0 -2 -19
-21 -41 -42 -23 -22 -38 -33 -34 -25 17 32 75 84 75 67z m-2926 -76 c-6 -6
-24 19 -24 34 1 6 7 1 15 -9 8 -11 12 -22 9 -25z m-1047 -67 c-3 -3 -12 -4
-19 -1 -8 3 -5 6 6 6 11 1 17 -2 13 -5z m3443 -24 c0 -6 -6 -25 -14 -43 -10
-25 -30 -41 -92 -72 -44 -21 -81 -42 -84 -45 -3 -3 -16 -7 -30 -9 -14 -1 -34
-8 -45 -13 l-20 -11 20 24 c79 93 121 126 205 160 53 21 60 22 60 9z m-1460
-296 c25 -17 55 -34 66 -38 12 -4 29 -15 39 -26 17 -19 17 -20 1 -20 -10 0
-38 14 -63 30 -49 34 -70 35 -28 2 14 -11 22 -23 17 -26 -14 -8 -31 8 -66 67
-19 32 -29 54 -23 50 7 -4 32 -21 57 -39z m-126 -47 c33 -26 42 -66 17 -68
-28 -2 -46 3 -53 14 -4 7 -11 7 -22 -2 -11 -10 -20 -10 -37 0 l-23 12 25 18
c13 10 31 25 39 33 20 19 21 19 54 -7z m143 -53 c-3 -3 -12 -4 -19 -1 -8 3 -5
6 6 6 11 1 17 -2 13 -5z m23 -151 c-82 -19 -142 -22 -147 -6 -5 13 35 19 142
21 l70 0 -65 -15z m277 -69 c-3 -3 -12 -4 -19 -1 -8 3 -5 6 6 6 11 1 17 -2 13
-5z m-127 -8 c0 -8 -51 -13 -56 -5 -3 5 9 9 25 9 17 0 31 -2 31 -4z"/>
<path d="M4393 8230 c-29 -28 -56 -49 -60 -47 -11 6 -48 -8 -49 -19 0 -5 -9
-26 -18 -47 -9 -22 -15 -44 -13 -50 2 -7 0 -20 -5 -29 -5 -10 -6 -18 -3 -18
16 0 43 39 50 70 8 37 40 80 61 80 7 0 10 -9 7 -22 -3 -14 3 -9 13 12 10 19
24 39 31 43 7 4 13 14 13 22 0 8 7 18 16 23 9 5 15 15 13 21 -3 7 -28 -11 -56
-39z"/>
<path d="M4470 8270 c0 -5 7 -7 15 -4 8 4 15 8 15 10 0 2 -7 4 -15 4 -8 0 -15
-4 -15 -10z"/>
<path d="M4440 8211 c-8 -21 -9 -35 -1 -48 8 -14 11 -15 11 -3 0 12 3 11 11
-3 6 -10 8 -25 5 -33 -3 -8 1 -14 8 -14 20 0 25 21 17 66 -13 71 -31 83 -51
35z"/>
<path d="M4386 8135 c-4 -11 -13 -14 -30 -9 -18 4 -27 1 -35 -14 -14 -26 -14
-102 -1 -102 6 0 10 5 10 10 0 16 44 30 52 16 5 -8 12 -7 22 4 14 15 19 42 17
88 -1 25 -26 30 -35 7z"/>
<path d="M5220 7975 c-14 -36 -13 -42 8 -55 15 -10 14 -10 -5 -5 -16 4 -25 0
-33 -15 -6 -12 -9 -24 -7 -27 7 -6 61 22 76 40 15 19 20 71 6 72 -5 0 -16 4
-23 8 -8 6 -15 -1 -22 -18z"/>
<path d="M6320 7897 c0 -19 44 -37 88 -36 38 1 34 3 -30 14 -24 4 -38 11 -38
20 0 8 -4 15 -10 15 -5 0 -10 -6 -10 -13z"/>
<path d="M7000 7799 c0 -5 5 -7 10 -4 6 3 10 8 10 11 0 2 -4 4 -10 4 -5 0 -10
-5 -10 -11z"/>
<path d="M7005 7770 c-3 -5 -1 -10 4 -10 6 0 11 5 11 10 0 6 -2 10 -4 10 -3 0
-8 -4 -11 -10z"/>
<path d="M7037 7760 c4 -16 2 -19 -11 -14 -13 5 -15 2 -9 -12 3 -11 11 -22 17
-26 6 -4 12 -27 12 -50 1 -24 4 -62 7 -85 3 -24 1 -43 -4 -43 -5 0 -9 4 -9 9
0 5 -7 12 -16 15 -12 4 -15 2 -10 -9 4 -10 -1 -15 -14 -15 -11 0 -20 -7 -20
-15 0 -10 -10 -15 -30 -15 -41 0 -76 -55 -84 -133 -31 -306 -192 -450 -626
-557 -159 -39 -363 -51 -620 -37 -156 9 -398 20 -437 20 -28 -1 -33 3 -33 23
l0 24 -562 0 c-335 -1 -583 -5 -613 -11 -27 -6 -61 -12 -74 -15 -53 -11 -168
-56 -240 -95 -240 -129 -467 -360 -583 -594 -104 -207 -147 -406 -143 -658 6
-336 80 -584 238 -797 107 -144 277 -289 426 -361 93 -45 238 -86 326 -92 234
-16 411 127 441 355 9 72 -52 138 -127 138 -45 0 -55 -12 -74 -84 -43 -163
-145 -266 -260 -261 -153 7 -386 192 -508 402 -63 110 -114 242 -132 342 -3
19 -8 37 -10 41 -9 14 -19 162 -18 255 3 231 99 528 235 728 23 34 76 96 117
138 184 184 387 271 736 314 95 12 199 16 350 15 313 -1 338 -6 350 -58 5 -27
0 -234 -9 -357 -5 -55 -14 -192 -21 -325 -2 -30 -4 -129 -6 -220 -1 -91 -6
-180 -12 -199 -11 -44 -54 -86 -98 -99 -164 -48 -307 -97 -322 -110 -20 -18
-15 -47 14 -76 18 -20 79 -24 141 -10 67 15 176 33 200 34 37 0 76 -37 84 -80
11 -63 2 -830 -11 -930 -2 -19 -7 -73 -10 -120 -3 -47 -8 -92 -10 -100 -2 -8
-7 -42 -10 -75 -10 -91 -15 -129 -20 -145 -2 -8 -7 -35 -10 -60 -27 -190 -122
-510 -199 -669 -74 -154 -269 -284 -446 -298 -150 -11 -270 49 -352 177 -88
137 -80 372 19 566 43 84 40 100 -21 123 -32 12 -41 12 -76 -4 -133 -60 -248
-298 -254 -525 -4 -158 30 -261 117 -356 79 -87 200 -134 453 -178 74 -13 268
-14 344 -2 25 4 59 10 75 12 37 6 51 9 150 41 324 102 579 325 702 617 46 110
203 675 229 824 3 15 7 34 9 42 3 8 7 32 11 54 3 21 8 48 10 60 3 11 7 35 9
51 3 17 7 41 10 55 11 54 24 137 29 185 4 28 9 66 11 85 10 62 14 103 20 185
4 44 9 91 11 105 2 14 6 113 9 220 8 285 11 307 39 350 37 57 114 86 296 115
19 3 55 10 80 15 25 5 88 17 140 25 52 9 120 23 150 31 30 9 63 18 74 20 35 6
45 23 35 54 -8 21 -18 29 -42 33 -38 5 -193 1 -222 -6 -11 -2 -40 -8 -65 -13
-25 -4 -47 -8 -50 -9 -5 -1 -80 -14 -120 -21 -14 -2 -36 -6 -50 -9 -74 -16
-99 -19 -143 -18 -90 3 -114 51 -116 228 -1 67 -4 133 -6 146 -2 13 -6 47 -9
74 -12 118 -37 240 -66 323 -39 114 -31 169 31 206 23 14 50 17 136 14 94 -3
180 3 248 16 11 2 43 7 70 10 345 46 556 132 707 289 75 79 145 213 151 291 1
14 7 24 12 23 6 -1 9 -13 7 -25 -3 -24 -3 -24 22 -5 14 10 26 24 26 31 0 9 7
11 22 6 21 -6 22 -5 8 11 -8 11 -10 16 -3 12 20 -12 51 43 48 86 -2 20 0 35 5
32 5 -3 11 -1 15 5 4 6 11 7 17 4 8 -5 9 -1 5 10 -4 10 -7 24 -7 32 0 8 -7 14
-17 12 -22 -4 -61 66 -92 162 -28 89 -56 152 -64 144 -3 -3 -8 4 -12 15 -8 27
-25 28 -18 1z"/>
<path d="M6015 7739 c-4 -6 -5 -12 -2 -15 2 -3 7 2 10 11 7 17 1 20 -8 4z"/>
<path d="M6052 7697 c-26 -44 -28 -66 -7 -63 25 4 42 38 36 71 l-6 30 -23 -38z"/>
<path d="M6650 7640 c-19 -12 -7 -22 21 -18 19 2 20 5 8 15 -9 7 -20 9 -29 3z"/>
<path d="M6621 7596 c-16 -19 -32 -76 -21 -76 4 0 10 7 14 15 3 8 12 15 20 15
8 0 16 13 18 30 5 32 -11 40 -31 16z"/>
<path d="M2860 7441 c0 -5 5 -13 10 -16 6 -3 10 -2 10 4 0 5 -4 13 -10 16 -5
3 -10 2 -10 -4z"/>
<path d="M7461 7154 c0 -11 3 -14 6 -6 3 7 2 16 -1 19 -3 4 -6 -2 -5 -13z"/>
<path d="M7495 6930 c28 -12 45 -12 45 0 0 6 -15 10 -32 9 -28 0 -30 -2 -13
-9z"/>
<path d="M7636 6852 c-16 -26 -32 -282 -18 -282 4 0 8 26 9 58 4 89 12 185 17
210 5 22 1 29 -8 14z"/>
<path d="M2623 6843 c-14 -5 -18 -54 -5 -52 19 3 25 -2 12 -11 -12 -8 -11 -10
8 -10 14 0 26 -8 32 -22 9 -23 11 -21 15 20 2 16 -2 22 -12 18 -11 -4 -13 -1
-8 14 5 17 -14 52 -27 49 -2 0 -9 -3 -15 -6z"/>
<path d="M7515 6740 c-4 -6 -4 -14 -1 -19 4 -5 1 -11 -6 -13 -12 -4 -3 -28 10
-28 4 0 13 13 19 29 8 24 8 31 -3 35 -7 3 -16 1 -19 -4z"/>
<path d="M7526 6645 c-8 -8 -19 -15 -25 -15 -17 0 -22 -19 -11 -40 10 -19 12
-19 45 -3 28 13 35 23 35 45 0 31 -19 37 -44 13z"/>
<path d="M7467 6593 c-12 -12 -7 -33 8 -33 17 0 19 9 7 28 -5 7 -11 9 -15 5z"/>
<path d="M7552 6577 c-13 -15 1 -42 17 -33 13 8 15 46 2 46 -5 0 -13 -6 -19
-13z"/>
<path d="M2347 6488 c-18 -19 -18 -20 2 -39 22 -21 51 -25 51 -7 0 6 3 8 6 5
4 -4 1 -14 -6 -22 -11 -14 -10 -19 8 -38 l22 -21 0 31 c0 41 -16 83 -38 99
-22 17 -23 17 -45 -8z"/>
<path d="M7660 6239 c-15 -27 -6 -49 20 -49 17 0 19 -4 14 -26 -4 -17 -2 -29
7 -35 22 -14 26 -11 37 21 9 23 8 33 -4 45 -9 8 -21 15 -28 15 -9 0 -12 9 -8
25 6 32 -22 35 -38 4z"/>
<path d="M2360 6195 c0 -8 2 -15 4 -15 2 0 6 7 10 15 3 8 1 15 -4 15 -6 0 -10
-7 -10 -15z"/>
<path d="M7860 6176 c0 -8 7 -16 15 -20 9 -3 15 0 15 8 0 8 -7 16 -15 20 -9 3
-15 0 -15 -8z"/>
<path d="M7799 6165 c-1 -3 -3 -9 -4 -15 -1 -5 -3 -17 -4 -25 0 -8 -7 -12 -16
-9 -8 4 -15 2 -15 -4 0 -12 50 -31 66 -25 7 2 10 13 7 24 -4 15 -2 18 11 13
23 -9 21 23 -3 36 -21 11 -40 13 -42 5z"/>
<path d="M7750 6071 c0 -5 5 -13 10 -16 6 -3 10 -2 10 4 0 5 -4 13 -10 16 -5
3 -10 2 -10 -4z"/>
<path d="M8129 5643 c-13 -17 -13 -17 6 -3 11 8 22 16 24 17 2 2 0 3 -6 3 -6
0 -17 -8 -24 -17z"/>
<path d="M7982 5541 c2 -7 7 -12 11 -12 12 1 9 15 -3 20 -7 2 -11 -2 -8 -8z"/>
<path d="M8066 5355 c-3 -8 -1 -15 4 -15 6 0 10 7 10 15 0 8 -2 15 -4 15 -2 0
-6 -7 -10 -15z"/>
<path d="M8030 5125 c-12 -14 -12 -18 1 -25 10 -7 15 -5 17 5 6 28 -3 38 -18
20z"/>
<path d="M8090 5111 c0 -6 5 -13 10 -16 6 -3 10 1 10 9 0 9 -4 16 -10 16 -5 0
-10 -4 -10 -9z"/>
<path d="M8010 5081 c0 -5 7 -12 16 -15 14 -5 15 -4 4 9 -14 17 -20 19 -20 6z"/>
<path d="M8030 4648 c-23 -38 -25 -49 -7 -45 7 1 12 -7 11 -20 0 -12 3 -20 8
-17 4 3 8 -1 9 -8 0 -7 5 -3 11 10 6 12 15 22 20 22 5 0 6 -4 3 -10 -3 -5 -2
-10 4 -10 15 0 29 30 24 51 -7 25 -23 24 -23 -1 0 -20 0 -20 -21 1 -12 12 -19
29 -16 40 7 28 -1 23 -23 -13z"/>
<path d="M1910 3526 c0 -2 7 -7 16 -10 8 -3 12 -2 9 4 -6 10 -25 14 -25 6z"/>
<path d="M7668 2863 c7 -3 16 -2 19 1 4 3 -2 6 -13 5 -11 0 -14 -3 -6 -6z"/>
<path d="M1960 2793 c0 -13 65 -53 85 -53 17 0 17 2 5 15 -19 18 -90 48 -90
38z"/>
<path d="M2015 2690 c19 -21 45 -27 45 -11 0 5 -14 14 -32 20 -31 11 -31 11
-13 -9z"/>
<path d="M2788 2448 c-16 -5 -28 -13 -28 -17 0 -10 59 -1 65 9 9 14 -9 18 -37
8z"/>
<path d="M2660 2430 c-12 -8 -11 -14 10 -42 13 -18 16 -27 7 -20 -14 12 -19
12 -32 -1 -19 -19 -19 -27 0 -27 8 0 12 -6 9 -13 -8 -22 23 -40 58 -35 21 4
36 0 43 -9 6 -8 18 -11 28 -7 14 5 15 9 6 20 -6 8 -15 11 -20 9 -11 -7 -27 25
-24 48 2 9 0 15 -4 13 -4 -3 -13 -1 -21 5 -12 7 -10 9 6 9 12 0 24 7 27 15 9
21 -7 27 -29 11 -17 -13 -21 -12 -34 9 -11 17 -20 21 -30 15z m65 -120 c3 -5
2 -10 -4 -10 -5 0 -13 5 -16 10 -3 6 -2 10 4 10 5 0 13 -4 16 -10z"/>
<path d="M2801 2400 c-23 -13 16 -45 56 -45 39 0 40 5 12 36 -14 17 -22 20
-26 11 -3 -9 -9 -10 -17 -3 -7 6 -18 6 -25 1z"/>
<path d="M2780 2356 c0 -18 17 -30 50 -33 24 -3 25 -3 5 13 -38 30 -55 36 -55
20z"/>
<path d="M2611 2283 c0 -5 5 -17 10 -28 9 -18 9 -18 5 3 -3 17 -1 22 10 18 8
-3 14 -1 14 4 0 6 -9 10 -20 10 -11 0 -20 -3 -19 -7z"/>
<path d="M2830 2279 c0 -5 5 -7 10 -4 6 3 10 8 10 11 0 2 -4 4 -10 4 -5 0 -10
-5 -10 -11z"/>
<path d="M3240 2160 c0 -5 5 -10 10 -10 6 0 10 5 10 10 0 6 -4 10 -10 10 -5 0
-10 -4 -10 -10z"/>
<path d="M3250 2131 c0 -6 9 -15 21 -21 18 -10 20 -9 17 7 -3 19 -38 32 -38
14z"/>
<path d="M7107 2103 c-4 -3 -7 -13 -7 -22 1 -13 3 -13 11 2 11 19 8 33 -4 20z"/>
<path d="M3226 2081 c-4 -5 -2 -12 3 -15 5 -4 12 -2 15 3 4 5 2 12 -3 15 -5 4
-12 2 -15 -3z"/>
<path d="M3822 2059 c2 -6 8 -10 13 -10 5 0 11 4 13 10 2 6 -4 11 -13 11 -9 0
-15 -5 -13 -11z"/>
<path d="M7250 2056 c0 -2 7 -7 16 -10 8 -3 12 -2 9 4 -6 10 -25 14 -25 6z"/>
<path d="M3450 1975 c0 -8 4 -15 10 -15 5 0 7 7 4 15 -4 8 -8 15 -10 15 -2 0
-4 -7 -4 -15z"/>
<path d="M3646 1958 c9 -30 10 -31 25 -23 8 6 7 10 -5 17 -9 5 -14 13 -11 19
4 5 1 9 -5 9 -7 0 -9 -8 -4 -22z"/>
<path d="M4311 1881 c-17 -11 -6 -48 19 -61 15 -8 24 -5 40 12 20 21 22 22 31
6 6 -10 17 -18 24 -18 22 0 18 34 -5 55 -20 18 -21 18 -33 0 -13 -16 -15 -16
-38 -2 -15 10 -29 13 -38 8z"/>
<path d="M4220 1859 c0 -5 5 -7 10 -4 6 3 10 8 10 11 0 2 -4 4 -10 4 -5 0 -10
-5 -10 -11z"/>
<path d="M4802 1853 c-6 -2 -9 -9 -6 -15 3 -5 3 -25 -1 -45 -6 -32 -8 -33 -19
-17 -8 11 -19 15 -31 11 -14 -6 -15 -10 -5 -22 7 -8 20 -15 29 -15 9 0 27 -7
39 -16 12 -8 26 -13 31 -10 12 8 12 96 0 96 -5 0 -9 9 -9 20 0 20 -5 23 -28
13z"/>
<path d="M4230 1820 c-22 -22 -19 -40 8 -40 12 0 13 -3 4 -12 -17 -17 -15 -28
4 -28 17 0 44 23 44 38 0 5 -6 15 -14 22 -8 6 -12 18 -9 26 8 21 -14 17 -37
-6z"/>
<path d="M3671 1754 c0 -11 3 -14 6 -6 3 7 2 16 -1 19 -3 4 -6 -2 -5 -13z"/>
<path d="M4890 1750 c-13 -8 -12 -13 8 -32 19 -20 24 -21 32 -8 7 11 5 16 -5
18 -7 2 -15 10 -17 17 -2 10 -7 12 -18 5z"/>
<path d="M4253 1723 c-20 -7 -15 -22 7 -20 20 1 27 12 13 20 -5 2 -14 2 -20 0z"/>
<path d="M4730 1723 c0 -5 14 -16 30 -25 35 -20 41 -7 8 16 -24 17 -38 20 -38
9z"/>
<path d="M4804 1671 c3 -5 30 -25 58 -45 29 -20 67 -46 83 -58 26 -19 28 -20
15 -3 -40 52 -182 149 -156 106z"/>
<path d="M6660 1542 c0 -14 26 -22 73 -22 31 1 38 3 26 10 -25 15 -99 24 -99
12z"/>
<path d="M6602 1497 c9 -9 31 -17 49 -17 36 0 36 6 -1 13 -14 3 -34 9 -45 13
-19 7 -19 7 -3 -9z"/>
<path d="M8231 4493 c-1 -12 4 -25 9 -28 12 -7 12 2 0 30 -8 19 -9 19 -9 -2z"/>
<path d="M4745 8810 c3 -5 8 -10 11 -10 2 0 4 5 4 10 0 6 -5 10 -11 10 -5 0
-7 -4 -4 -10z"/>
<path d="M6536 8725 c-14 -14 -29 -25 -33 -25 -12 -1 -75 -90 -63 -90 5 0 10
-7 10 -15 0 -8 8 -15 18 -15 10 0 25 -9 34 -19 18 -22 12 -37 -9 -20 -10 9
-13 8 -13 -5 0 -20 33 -21 50 -1 9 11 22 14 47 9 23 -4 39 -2 51 8 9 8 24 18
33 21 9 3 19 15 22 26 4 16 0 21 -16 21 -17 1 -13 5 17 20 52 26 66 39 66 62
0 17 -5 18 -46 14 -25 -3 -68 -17 -95 -30 -53 -27 -54 -27 -40 21 12 43 -1 50
-33 18z"/>
<path d="M3336 8564 c-5 -14 -4 -15 9 -4 17 14 19 20 6 20 -5 0 -12 -7 -15
-16z"/>
<path d="M5670 8559 c0 -11 5 -17 10 -14 6 3 10 13 10 21 0 8 -4 14 -10 14 -5
0 -10 -9 -10 -21z"/>
<path d="M4840 8440 c0 -5 5 -10 10 -10 6 0 10 5 10 10 0 6 -4 10 -10 10 -5 0
-10 -4 -10 -10z"/>
<path d="M7400 7830 c0 -5 5 -10 11 -10 5 0 7 5 4 10 -3 6 -8 10 -11 10 -2 0
-4 -4 -4 -10z"/>
<path d="M2105 7600 c3 -5 8 -10 11 -10 2 0 4 5 4 10 0 6 -5 10 -11 10 -5 0
-7 -4 -4 -10z"/>
<path d="M1986 7123 c-11 -11 -6 -23 9 -23 8 0 15 4 15 9 0 13 -16 22 -24 14z"/>
<path d="M8138 7072 c31 -31 82 -64 82 -53 0 11 -77 71 -92 71 -4 0 0 -8 10
-18z"/>
<path d="M8500 6684 c0 -8 5 -12 10 -9 6 4 8 11 5 16 -9 14 -15 11 -15 -7z"/>
<path d="M8523 6664 c-3 -8 -1 -20 6 -27 8 -8 11 -4 9 16 -3 31 -6 34 -15 11z"/>
<path d="M8390 6615 c0 -8 4 -15 10 -15 5 0 7 7 4 15 -4 8 -8 15 -10 15 -2 0
-4 -7 -4 -15z"/>
<path d="M8657 6382 c-23 -25 -13 -49 27 -67 17 -8 39 -20 48 -27 9 -7 20 -9
23 -6 10 9 -27 68 -42 68 -7 0 -18 11 -26 25 -13 25 -13 26 -30 7z"/>
<path d="M8727 6388 c-7 -19 19 -58 39 -58 20 0 17 15 -9 46 -19 22 -25 24
-30 12z"/>
<path d="M1385 6360 c-3 -5 -1 -10 4 -10 6 0 11 5 11 10 0 6 -2 10 -4 10 -3 0
-8 -4 -11 -10z"/>
<path d="M8585 6292 c-4 -11 1 -23 15 -34 24 -20 50 -24 50 -8 0 6 -4 10 -10
10 -5 0 -10 7 -10 15 0 8 -9 19 -19 24 -15 8 -20 7 -26 -7z"/>
<path d="M8650 6298 c0 -10 6 -18 14 -18 8 0 18 -9 21 -20 3 -11 11 -20 16
-20 15 0 11 9 -21 43 -23 25 -30 28 -30 15z"/>
<path d="M8720 6221 c0 -6 5 -13 10 -16 6 -3 10 1 10 9 0 9 -4 16 -10 16 -5 0
-10 -4 -10 -9z"/>
<path d="M8756 6191 c-3 -5 1 -11 9 -15 15 -6 29 7 18 18 -9 9 -21 8 -27 -3z"/>
<path d="M8795 5960 c8 -16 15 -45 15 -65 0 -19 5 -35 10 -35 6 0 10 12 10 27
0 30 -30 103 -42 103 -5 0 -2 -13 7 -30z"/>
<path d="M8900 5821 c0 -14 51 -52 61 -46 10 7 -10 55 -22 55 -5 0 -6 -8 -3
-17 5 -17 5 -17 -6 0 -12 18 -30 23 -30 8z"/>
<path d="M8845 5811 c-3 -5 0 -13 6 -17 8 -4 7 -9 -2 -15 -12 -8 -12 -10 0
-18 9 -6 10 -11 2 -15 -6 -4 -11 -16 -11 -26 0 -11 -6 -25 -13 -32 -11 -10
-11 -15 2 -30 8 -10 24 -18 34 -18 15 0 17 3 8 14 -9 11 -7 12 13 9 18 -4 22
-10 19 -24 -6 -22 21 -48 50 -49 17 0 17 1 0 28 -9 15 -26 37 -37 50 -17 19
-17 22 -3 22 21 0 21 9 2 34 -8 11 -15 30 -15 41 0 12 -8 29 -18 38 -21 19
-28 21 -37 8z"/>
<path d="M8855 5160 c-3 -5 -1 -10 4 -10 6 0 11 5 11 10 0 6 -2 10 -4 10 -3 0
-8 -4 -11 -10z"/>
<path d="M8855 5100 c-3 -5 1 -10 9 -10 8 0 18 5 21 10 3 6 -1 10 -9 10 -8 0
-18 -4 -21 -10z"/>
<path d="M8640 3759 c0 -5 5 -7 10 -4 6 3 10 8 10 11 0 2 -4 4 -10 4 -5 0 -10
-5 -10 -11z"/>
<path d="M8643 3613 c-7 -2 -13 -13 -13 -24 0 -11 -7 -22 -15 -25 -21 -8 -19
-31 3 -36 29 -8 82 3 82 17 0 7 3 26 6 42 5 26 3 29 -23 30 -15 1 -34 -1 -40
-4z"/>
<path d="M8545 2810 c-3 -5 -15 -10 -25 -10 -11 0 -27 -12 -36 -26 -15 -22
-15 -27 -3 -35 19 -12 56 -11 64 1 3 6 1 10 -6 10 -7 0 -3 9 9 20 12 12 22 25
22 30 0 14 -18 21 -25 10z m-21 -55 c3 -9 0 -15 -9 -15 -16 0 -27 14 -18 24
10 10 21 7 27 -9z"/>
<path d="M8593 2778 c2 -7 -5 -18 -16 -24 -12 -7 -16 -14 -9 -18 13 -8 54 33
46 46 -8 13 -26 9 -21 -4z"/>
<path d="M8435 2749 c-4 -6 -5 -13 -2 -16 7 -7 27 6 27 18 0 12 -17 12 -25 -2z"/>
<path d="M1802 2448 c-17 -17 -15 -38 2 -32 17 7 28 31 17 38 -4 3 -13 0 -19
-6z"/>
<path d="M1626 2434 c-7 -19 2 -37 15 -29 12 8 12 45 0 45 -5 0 -12 -7 -15
-16z"/>
<path d="M1576 2415 c-3 -8 -1 -15 3 -15 5 0 11 7 15 15 3 8 1 15 -3 15 -5 0
-11 -7 -15 -15z"/>
<path d="M2386 2005 c-27 -20 24 -39 97 -36 26 1 47 25 33 38 -11 11 -114 9
-130 -2z"/>
<path d="M3120 1530 c-11 -7 -1 -9 33 -8 50 1 56 8 10 14 -16 2 -35 -1 -43 -6z"/>
<path d="M2820 1430 c0 -5 5 -10 10 -10 6 0 10 5 10 10 0 6 -4 10 -10 10 -5 0
-10 -4 -10 -10z"/>
<path d="M2870 1400 c0 -5 5 -10 11 -10 5 0 7 5 4 10 -3 6 -8 10 -11 10 -2 0
-4 -4 -4 -10z"/>
<path d="M3309 1159 c-16 -13 -20 -22 -12 -25 10 -4 10 -8 0 -18 -10 -11 -16
-11 -33 0 -11 8 -24 11 -28 7 -4 -5 -13 -8 -19 -8 -7 0 -13 -7 -15 -15 -3 -19
54 -25 94 -10 24 9 25 9 14 -5 -7 -8 -11 -15 -9 -16 2 0 17 -3 33 -5 16 -3 37
-9 46 -14 8 -4 31 -5 50 -1 l33 6 -29 20 c-16 11 -32 18 -36 17 -5 -1 -8 2 -8
8 0 5 -13 22 -30 36 -16 15 -27 31 -24 35 9 15 -3 10 -27 -12z"/>
<path d="M6635 1160 c-4 -6 -1 -18 6 -26 14 -17 31 0 22 23 -6 16 -19 17 -28
3z"/>
<path d="M6736 1084 c-8 -22 4 -40 15 -23 11 18 11 39 0 39 -5 0 -12 -7 -15
-16z"/>
<path d="M3500 1069 c0 -9 10 -21 23 -27 28 -14 107 -22 107 -11 0 5 -14 9
-30 9 -17 0 -42 7 -55 16 -14 9 -25 12 -25 8 0 -5 -5 -2 -10 6 -8 13 -10 13
-10 -1z"/>
<path d="M3950 1047 c-36 -18 -37 -38 -3 -34 32 4 53 14 53 27 0 15 -27 18
-50 7z"/>
<path d="M6763 1040 c-9 -13 -9 -21 -2 -26 12 -7 29 13 29 34 0 18 -14 15 -27
-8z"/>
<path d="M4350 1040 c0 -6 7 -10 15 -10 8 0 15 2 15 4 0 2 -7 6 -15 10 -8 3
-15 1 -15 -4z"/>
<path d="M5295 1030 c-3 -5 -1 -10 4 -10 6 0 11 5 11 10 0 6 -2 10 -4 10 -3 0
-8 -4 -11 -10z"/>
<path d="M3367 1009 c-25 -15 -11 -29 26 -28 18 1 24 3 15 6 -10 2 -18 8 -18
13 0 4 9 6 20 3 11 -3 20 0 20 6 0 14 -39 14 -63 0z"/>
<path d="M4843 1003 c-38 -15 -57 -39 -23 -28 13 4 41 16 64 26 33 15 36 18
15 17 -14 -1 -39 -8 -56 -15z"/>
<path d="M6797 990 c-3 -11 -1 -20 4 -20 5 0 9 9 9 20 0 11 -2 20 -4 20 -2 0
-6 -9 -9 -20z"/>
<path d="M3935 980 c-4 -6 -11 -8 -16 -5 -5 4 -17 1 -26 -5 -15 -8 -13 -9 12
-6 17 2 38 5 48 5 9 1 17 6 17 11 0 13 -27 13 -35 0z"/>
<path d="M3830 960 c0 -5 7 -10 15 -10 8 0 15 5 15 10 0 6 -7 10 -15 10 -8 0
-15 -4 -15 -10z"/>
<path d="M3996 962 c-11 -2 -26 -10 -34 -18 -7 -8 -22 -14 -31 -14 -26 0 -46
-26 -26 -34 8 -3 22 -3 30 0 8 4 15 1 15 -5 0 -6 -4 -11 -10 -11 -5 0 -10 -7
-10 -15 0 -17 65 -22 75 -6 7 12 -29 33 -40 23 -4 -4 -1 3 6 16 8 12 20 20 26
17 22 -8 41 5 36 26 -6 23 -12 27 -37 21z"/>
<path d="M3794 945 c-9 -22 1 -29 15 -11 8 10 9 16 1 21 -5 3 -13 -1 -16 -10z"/>
<path d="M4355 910 c-3 -5 1 -10 10 -10 9 0 13 5 10 10 -3 6 -8 10 -10 10 -2
0 -7 -4 -10 -10z"/>
<path d="M4301 906 c2 -2 14 -9 26 -15 19 -10 22 -9 17 4 -4 8 -15 15 -27 15
-11 0 -18 -2 -16 -4z"/>
</g>
</svg>
